<svg width="70" height="71" viewBox="0 0 70 71" fill="none" xmlns="http://www.w3.org/2000/svg">
<g clip-path="url(#clip0_856_5954)">
<path d="M19.4553 56.9798C20.8659 57.5262 22.0673 58.2432 22.9704 59.0843C23.296 59.3866 23.5866 59.7083 23.8346 60.0415C24.0826 59.7081 24.3733 59.3864 24.6988 59.0843C25.6019 58.2433 26.8032 57.5262 28.21 56.9798C27.6247 55.8907 27.2914 54.6506 27.2914 53.3368V46.1748C27.2914 44.861 27.8263 43.6713 28.6905 42.807C29.5547 41.9426 30.7444 41.4078 32.0583 41.4078H37.9414C39.2551 41.4078 40.4449 41.9426 41.3092 42.807C42.1733 43.6713 42.7082 44.8609 42.7082 46.1748V53.3368C42.7082 54.6506 42.3749 55.8907 41.7859 56.9798C43.1966 57.5262 44.398 58.2432 45.3011 59.0843C45.6266 59.3866 45.9172 59.7083 46.1652 60.0415C46.4132 59.7081 46.7037 59.3864 47.0292 59.0843C47.9323 58.2433 49.1338 57.5262 50.5444 56.9798C49.9553 55.8907 49.6221 54.6506 49.6221 53.3368V46.1748C49.6221 44.861 50.157 43.6713 51.021 42.807C51.8854 41.9426 53.0749 41.4078 54.3888 41.4078H60.272C61.5857 41.4078 62.7753 41.9426 63.6397 42.807C64.5038 43.6713 65.0387 44.8609 65.0387 46.1748V53.3368C65.0387 54.6506 64.7053 55.8907 64.1203 56.9798C65.527 57.5262 66.7284 58.2432 67.6315 59.0843C68.8329 60.2005 69.5226 61.5296 69.5226 62.9831V69.0484C69.5226 69.6142 69.0615 70.0714 68.4956 70.0714H46.1652H23.8346H1.50408C0.938203 70.0714 0.477051 69.6141 0.477051 69.0484V62.9831C0.477051 61.5298 1.16693 60.2005 2.36828 59.0843C3.27131 58.2433 4.46883 57.5262 5.87949 56.9798C5.2942 55.8907 4.96102 54.6506 4.96102 53.3368V46.1748C4.96102 43.551 7.10422 41.4078 9.72785 41.4078H19.3507C19.9164 41.4078 20.3777 41.8651 20.3777 42.4348V53.3368C20.3777 54.6505 20.0444 55.8907 19.4553 56.9798ZM7.01111 47.3064H18.3275V43.458H9.72785C8.2357 43.458 7.01111 44.6826 7.01111 46.1748V47.3064ZM18.3275 49.3565H7.01111V53.3366C7.01111 54.8907 7.64672 56.3052 8.67375 57.3284C9.70078 58.3554 11.1153 58.9912 12.6694 58.9912C14.2234 58.9912 15.6381 58.3556 16.6651 57.3284C17.6882 56.3054 18.3276 54.8907 18.3276 53.3366V49.3565H18.3275ZM29.3417 48.0041C29.834 48.097 30.2873 48.0894 30.6982 48.0195C31.2911 47.9226 31.7755 47.7094 32.291 47.4188C33.4265 46.7715 33.6628 46.6824 34.8682 47.7365C36.9028 49.5154 39.4567 49.2441 40.658 48.9767V46.1746C40.658 45.4266 40.352 44.7484 39.8598 44.2563C39.3677 43.7641 38.6854 43.458 37.9415 43.458H32.0584C31.3104 43.458 30.6321 43.7641 30.1401 44.2563C29.6479 44.7485 29.3417 45.4268 29.3417 46.1746V48.0041ZM40.658 51.054C38.9568 51.3447 35.9804 51.426 33.5233 49.2751C33.3723 49.1395 33.3451 49.1705 33.1824 49.2635C32.6513 49.5658 31.915 49.8913 31.0353 50.0386C30.5161 50.1239 29.9502 50.151 29.3417 50.0734V53.3366C29.3417 54.8907 29.9773 56.3052 31.0043 57.3284C32.0313 58.3554 33.4458 58.9912 35 58.9912C36.5541 58.9912 37.9685 58.3556 38.9955 57.3284C40.0187 56.3054 40.658 54.8907 40.658 53.3366V51.054ZM51.6725 48.9264L54.7689 47.411C55.6175 46.9963 56.4857 46.9382 57.3809 47.2405L62.9888 49.1395V46.1748C62.9888 45.4268 62.6826 44.7485 62.1904 44.2565C61.6982 43.7643 61.0201 43.4582 60.2721 43.4582H54.3889C53.6451 43.4582 52.9627 43.7643 52.4706 44.2565C51.9785 44.7487 51.6725 45.4269 51.6725 46.1748V48.9264ZM62.9888 51.302L56.7259 49.1822C56.3462 49.0542 56.0244 49.0698 55.6638 49.2481L51.6723 51.2014V53.3368C51.6723 54.8909 52.3116 56.3054 53.3348 57.3286C54.3619 58.3556 55.7762 58.9913 57.3305 58.9913C58.8845 58.9913 60.299 58.3557 61.3261 57.3286C62.3531 56.3055 62.9888 54.8909 62.9888 53.3368V51.302ZM7.14291 58.6967C5.74387 59.1733 4.58121 59.8205 3.7635 60.5801C2.97668 61.3087 2.52715 62.1342 2.52715 62.983V68.0212H22.8076V62.983C22.8076 62.1342 22.3581 61.3087 21.5752 60.5801C20.7575 59.8205 19.5948 59.1733 18.1958 58.6967C16.7387 60.1965 14.7621 61.0453 12.6694 61.0453C10.5766 61.0451 8.59623 60.1964 7.14291 58.6967ZM51.804 58.6967C50.405 59.1733 49.2424 59.8205 48.4245 60.5801C47.6417 61.3087 47.1921 62.1342 47.1921 62.983V68.0212H67.4687V62.983C67.4687 62.1342 67.0193 61.3087 66.2363 60.5801C65.4187 59.8205 64.2558 59.1733 62.8568 58.6967C61.3996 60.1965 59.4231 61.0453 57.3303 61.0453C55.2415 61.0451 53.2575 60.1964 51.804 58.6967ZM29.4735 58.6967C28.0746 59.1733 26.9118 59.8205 26.094 60.5801C25.3112 61.3087 24.8578 62.1342 24.8578 62.983V68.0212H45.1383V62.983C45.1383 62.1342 44.6886 61.3087 43.9059 60.5801C43.088 59.8205 41.9254 59.1733 40.5263 58.6967C39.0732 60.1965 37.0888 61.0453 35 61.0453C32.9072 61.0451 30.9268 60.1964 29.4735 58.6967ZM67.4688 11.694C67.4688 11.1281 67.93 10.667 68.4959 10.667C69.0617 10.667 69.5229 11.1281 69.5229 11.694V35.9743C69.5229 37.6368 68.1664 38.9895 66.5039 38.9895H62.8066H52.6954H47.6379H37.5269H32.4732H22.3582H17.3044H7.18939H3.49225C1.83357 38.9895 0.477051 37.6368 0.477051 35.9743V3.08648C0.477051 1.42768 1.83344 0.0712891 3.49225 0.0712891H57.9003C58.4659 0.0712891 58.9232 0.532441 58.9232 1.09832C58.9232 1.6642 58.4658 2.12139 57.9003 2.12139H3.49225C2.96506 2.12139 2.52715 2.5593 2.52715 3.08648V16.333L12.1617 22.3789L26.7607 10.2136C27.1095 9.9268 27.6094 9.89576 27.9853 10.1438L42.3632 19.7319L49.7499 10.3453C50.1296 9.86473 50.8429 9.82207 51.2768 10.2522L54.8074 13.3371L66.0192 2.12125H62.543C61.9771 2.12125 61.5198 1.66393 61.5198 1.09818C61.5198 0.532441 61.9774 0.0712891 62.5431 0.0712891H68.4957C69.0616 0.0712891 69.5228 0.532441 69.5228 1.09832V7.04736C69.5228 7.61707 69.0616 8.07439 68.4957 8.07439C67.9298 8.07439 67.4687 7.61707 67.4687 7.04736V3.57484L55.5787 15.4649C55.2027 15.8407 54.5905 15.8641 54.1835 15.5075L50.6918 12.4573L43.4214 21.7044C43.0995 22.154 42.4795 22.2741 42.0144 21.9642L27.4815 12.2754L12.9444 24.3903C12.6111 24.6964 12.1035 24.7583 11.7004 24.5065L2.52715 18.7475V35.9743C2.52715 36.5014 2.96506 36.9393 3.49225 36.9393H6.16633V28.4828C6.16633 27.9169 6.62365 27.4597 7.18939 27.4597H17.3044C17.8703 27.4597 18.3275 27.9171 18.3275 28.4828V33.2265V36.9393H21.3349V20.4798C21.3349 19.914 21.7922 19.4528 22.3579 19.4528H32.4729C33.0388 19.4528 33.496 19.914 33.496 20.4798V25.0065V29.223V33.4357V36.9391H36.5034V29.5369C36.5034 28.9712 36.9609 28.5138 37.5266 28.5138H47.6376C48.2075 28.5138 48.6647 28.9712 48.6647 29.5369V36.9393H51.6722V19.2126C51.6722 18.6467 52.1294 18.1895 52.6951 18.1895H62.8062C63.376 18.1895 63.8335 18.6469 63.8335 19.2126V36.9393H66.5035C67.0346 36.9393 67.4686 36.5014 67.4686 35.9743V11.694H67.4688ZM42.5844 34.7768C42.0185 34.7768 41.5573 34.3195 41.5573 33.7498C41.5573 33.1839 42.0185 32.7266 42.5844 32.7266H46.6148V30.5641H38.5538V36.9393H46.6148V34.7768H42.5844ZM57.7529 33.8273C57.187 33.8273 56.7259 33.37 56.7259 32.8042C56.7259 32.2383 57.187 31.7772 57.7529 31.7772H61.7834V29.6147H57.7529C57.187 29.6147 56.7259 29.1574 56.7259 28.5916C56.7259 28.0219 57.187 27.5646 57.7529 27.5646H61.7834V25.4021H57.7529C57.187 25.4021 56.7259 24.9408 56.7259 24.3751C56.7259 23.8094 57.187 23.352 57.7529 23.352H61.7834V20.2399H53.7223V36.9396H61.7834V33.8276H57.7529V33.8273ZM27.4156 34.4628C26.8497 34.4628 26.3885 34.0016 26.3885 33.4357C26.3885 32.8698 26.8497 32.4087 27.4156 32.4087H31.446V30.2462H27.4156C26.8497 30.2462 26.3885 29.7889 26.3885 29.2231C26.3885 28.6573 26.8497 28.1961 27.4156 28.1961H31.446V26.0335H27.4156C26.8497 26.0335 26.3885 25.5762 26.3885 25.0065C26.3885 24.4406 26.8497 23.9834 27.4156 23.9834H31.446V21.503H23.385V36.9393H31.446V34.4628H27.4156ZM12.2469 34.2497C11.681 34.2497 11.2199 33.7924 11.2199 33.2267C11.2199 32.657 11.6812 32.1995 12.2469 32.1995H16.2774V29.51H8.21643V36.9394H16.2774V34.2499H12.2469V34.2497Z" fill="url(#paint0_linear_856_5954)"/>
</g>
<defs>
<linearGradient id="paint0_linear_856_5954" x1="34.9993" y1="0.0712891" x2="34.9993" y2="70.0714" gradientUnits="userSpaceOnUse">
<stop stop-color="#FFF792"/>
<stop offset="0.309804" stop-color="#FCD863"/>
<stop offset="0.670588" stop-color="#E2B13C"/>
<stop offset="1" stop-color="#E8C44D"/>
</linearGradient>
<clipPath id="clip0_856_5954">
<rect width="70" height="70" fill="white" transform="translate(0 0.0712891)"/>
</clipPath>
</defs>
</svg>
