<svg width="71" height="71" viewBox="0 0 71 71" fill="none" xmlns="http://www.w3.org/2000/svg">
<g clip-path="url(#clip0_856_5867)">
<path d="M42.4042 13.3059C42.4042 14.4763 42.1212 15.5847 41.6174 16.5613C43.1637 16.852 44.555 17.6117 45.6286 18.6851C47.0198 20.0803 47.8841 21.9986 47.8841 24.1108V30.9356H51.5929C52.7517 30.9356 53.802 31.4084 54.5616 32.168C55.3252 32.9314 55.798 33.9819 55.798 35.1406C55.798 36.2954 55.3252 37.3495 54.5616 38.1091C53.802 38.8726 52.7517 39.3455 51.5929 39.3455H48.9769V46.8289H67.2192C67.4828 46.8289 67.7268 46.7205 67.9013 46.546C68.0756 46.3717 68.1841 46.1275 68.1841 45.8641V12.6935C68.1841 12.4261 68.0756 12.1857 67.9013 12.0114C67.7268 11.8371 67.4828 11.7286 67.2192 11.7286H42.4042V13.3059ZM40.3538 11.3023C38.7378 11.5581 35.9862 11.5851 33.7307 9.55063C32.9555 10.0156 31.6768 10.566 30.1188 10.3994V13.306C30.1188 14.709 30.6923 15.9917 31.6224 16.918C32.5485 17.8441 33.8275 18.4216 35.2344 18.4216C36.6412 18.4216 37.9202 17.8441 38.8502 16.918C39.7764 15.9917 40.3538 14.709 40.3538 13.306V11.3023ZM30.1188 8.33752C31.2194 8.52743 32.3471 8.1669 33.1805 7.44215C33.6067 7.07411 34.254 7.12045 34.6222 7.54688C36.5018 9.70553 39.1254 9.48842 40.3539 9.22893V6.72137C40.3539 6.0587 40.0827 5.45413 39.6446 5.01622C39.2067 4.57831 38.6022 4.30692 37.9395 4.30692H32.5293C31.8666 4.30692 31.2658 4.57817 30.8279 5.01622C30.39 5.45413 30.1188 6.0587 30.1188 6.72137V8.33752ZM46.9268 39.3453H37.5557C36.9898 39.3453 36.5327 38.8842 36.5327 38.3183C36.5327 37.7524 36.99 37.2913 37.5557 37.2913H51.5929C52.1859 37.2913 52.7207 37.0509 53.1121 36.6595C53.5036 36.2681 53.7477 35.7294 53.7477 35.1404C53.7477 34.5475 53.5036 34.0088 53.1121 33.6172C52.7207 33.2296 52.1859 32.9856 51.5929 32.9856C40.6871 32.9856 29.7815 32.9856 18.8757 32.9856C18.2866 32.9856 17.7479 33.2296 17.3565 33.6172C16.9651 34.0087 16.7247 34.5475 16.7247 35.1404C16.7247 35.7294 16.9651 36.2681 17.3565 36.6595C17.7479 37.0509 18.2867 37.2913 18.8757 37.2913H32.9129C33.4788 37.2913 33.9399 37.7524 33.9399 38.3183C33.9399 38.8842 33.4788 39.3453 32.9129 39.3453H23.5456V47.8558V65.9311C23.5456 66.1947 23.6542 66.4351 23.8285 66.6132C24.0028 66.7875 24.2471 66.8961 24.5106 66.8961H32.9128C33.4786 66.8961 33.9398 67.3572 33.9398 67.9231C33.9398 68.489 33.4786 68.9462 32.9128 68.9462H24.5106C23.6812 68.9462 22.9254 68.609 22.379 68.0626C21.8327 67.5161 21.4954 66.7605 21.4954 65.931V48.879H3.24957C2.42023 48.879 1.66445 48.5417 1.12195 47.9953C0.575488 47.4489 0.234375 46.6931 0.234375 45.8638V12.6935C0.234375 11.8602 0.575488 11.1084 1.12182 10.5619C1.66445 10.0155 2.4201 9.6745 3.24943 9.6745H28.0644V6.72137C28.0644 5.49295 28.5684 4.37678 29.3783 3.56686C30.1844 2.76077 31.3007 2.25696 32.5291 2.25696H37.9394C39.1678 2.25696 40.2839 2.76077 41.0939 3.56686C41.9001 4.37678 42.404 5.49295 42.404 6.72137V9.67463H67.219C68.0484 9.67463 68.8042 10.0156 69.3506 10.5621C69.8971 11.1085 70.2344 11.8604 70.2344 12.6935V45.8638C70.2344 46.6931 69.8972 47.4489 69.3508 47.9953C68.8043 48.5417 68.0487 48.879 67.2192 48.879H48.9771V65.9311C48.9771 66.7605 48.636 67.5162 48.0896 68.0627C47.547 68.6092 46.7913 68.9463 45.962 68.9463H37.556C36.9901 68.9463 36.5329 68.489 36.5329 67.9232C36.5329 67.3575 36.9903 66.8962 37.556 66.8962H45.962C46.2256 66.8962 46.466 66.7877 46.6403 66.6133C46.8186 66.4351 46.9271 66.1948 46.9271 65.9313V47.8558V39.3453H46.9268ZM21.4956 39.3453H18.8758C17.7208 39.3453 16.6706 38.8724 15.9071 38.109C15.1474 37.3494 14.6746 36.2953 14.6746 35.1404C14.6746 33.9816 15.1474 32.9313 15.9071 32.1679C16.6706 31.4083 17.7208 30.9355 18.8758 30.9355H22.5886V24.1106C22.5886 21.9986 23.4489 20.0803 24.844 18.6849C25.9177 17.6114 27.305 16.8518 28.8552 16.5612C28.3513 15.5846 28.0646 14.4762 28.0646 13.3057V11.7286H3.24957C2.98598 11.7286 2.74576 11.8371 2.57131 12.0114C2.39303 12.1857 2.28447 12.4261 2.28447 12.6935V45.8638C2.28447 46.1274 2.39303 46.3715 2.57131 46.5458C2.74563 46.7202 2.98598 46.8286 3.24957 46.8286H21.4956V39.3453ZM30.549 43.5695H39.9237C40.753 43.5695 41.5089 43.9105 42.0554 44.457C42.6019 45.0034 42.939 45.7553 42.939 46.5886V59.6529C42.939 60.4822 42.6019 61.238 42.0554 61.7844C41.5089 62.3308 40.7532 62.668 39.9237 62.668H30.549C29.7157 62.668 28.9638 62.3308 28.4173 61.7844C27.8708 61.238 27.5299 60.4823 27.5299 59.6529V46.5886C27.5299 45.7553 27.8708 45.0034 28.4173 44.457C28.9638 43.9105 29.7157 43.5695 30.549 43.5695ZM39.9237 45.6236H30.549C30.2816 45.6236 30.0413 45.7322 29.8669 45.9065C29.6926 46.0808 29.5841 46.3211 29.5841 46.5886V59.6529C29.5841 59.9165 29.6926 60.1567 29.8669 60.3349C30.0413 60.5093 30.2816 60.6178 30.549 60.6178H39.9237C40.1873 60.6178 40.4276 60.5093 40.602 60.3349C40.7804 60.1565 40.8888 59.9165 40.8888 59.6529V46.5886C40.8888 46.3211 40.7804 46.0808 40.602 45.9065C40.4275 45.7322 40.1873 45.6236 39.9237 45.6236ZM62.1267 39.5235C62.1267 38.9576 62.584 38.4965 63.1497 38.4965C63.7156 38.4965 64.1768 38.9576 64.1768 39.5235V40.7715H65.4248C65.9906 40.7715 66.4479 41.2288 66.4479 41.7945C66.4479 42.3604 65.9905 42.8215 65.4248 42.8215H64.1768V44.0694C64.1768 44.6353 63.7156 45.0924 63.1497 45.0924C62.5839 45.0924 62.1267 44.6351 62.1267 44.0694V42.8215H60.8787C60.3128 42.8215 59.8517 42.3604 59.8517 41.7945C59.8517 41.2286 60.3128 40.7715 60.8787 40.7715H62.1267V39.5235ZM10.2139 16.1349C10.2139 15.569 10.6752 15.1118 11.2409 15.1118C11.8068 15.1118 12.2681 15.5691 12.2681 16.1349V19.6578H15.787C16.3528 19.6578 16.81 20.1152 16.81 20.6809C16.81 21.2466 16.3527 21.7079 15.787 21.7079H12.2681V25.2268C12.2681 25.7927 11.8068 26.2538 11.2409 26.2538C10.6752 26.2538 10.2139 25.7927 10.2139 25.2268V21.7079H6.69502C6.129 21.7079 5.67182 21.2468 5.67182 20.6809C5.67182 20.115 6.12914 19.6578 6.69502 19.6578H10.2139V16.1349ZM37.242 20.1848L38.9859 25.3315C39.1216 25.7346 38.9937 26.1687 38.6875 26.4323L35.932 28.9938C35.5367 29.362 34.9283 29.3582 34.5368 28.9938L31.7582 26.4089C31.4521 26.126 31.3589 25.6996 31.483 25.3315L33.2308 20.1848C32.1147 19.8592 31.107 19.2663 30.2893 18.4836C28.7543 18.503 27.3825 19.0453 26.2934 20.1384C25.2703 21.1576 24.6385 22.5645 24.6385 24.1108V30.9356H27.7544V23.8163C27.7544 23.2467 28.2118 22.7892 28.7776 22.7892C29.3433 22.7892 29.8047 23.2467 29.8047 23.8163V30.9356H40.6677V23.8163C40.6677 23.2467 41.1252 22.7892 41.6908 22.7892C42.2567 22.7892 42.7179 23.2467 42.7179 23.8163V30.9356H45.8338V24.1108C45.8338 22.5645 45.1983 21.1576 44.1791 20.1384C43.0861 19.0455 41.7181 18.503 40.1832 18.4836C39.3619 19.2664 38.3581 19.8592 37.242 20.1848ZM36.8349 25.3624L35.2344 20.6422L33.6338 25.3624L35.2344 26.8468L36.8349 25.3624Z" fill="url(#paint0_linear_856_5867)"/>
</g>
<defs>
<linearGradient id="paint0_linear_856_5867" x1="35.2337" y1="2.25696" x2="35.2337" y2="68.9463" gradientUnits="userSpaceOnUse">
<stop stop-color="#FFF792"/>
<stop offset="0.309804" stop-color="#FCD863"/>
<stop offset="0.670588" stop-color="#E2B13C"/>
<stop offset="1" stop-color="#E8C44D"/>
</linearGradient>
<clipPath id="clip0_856_5867">
<rect width="70" height="70" fill="white" transform="translate(0.234375 0.601562)"/>
</clipPath>
</defs>
</svg>
