<svg width="71" height="71" viewBox="0 0 71 71" fill="none" xmlns="http://www.w3.org/2000/svg">
<g clip-path="url(#clip0_856_5873)">
<path d="M8.56457 19.5763H7.23143C5.89814 19.5763 4.689 20.1229 3.80936 21.0026C2.92957 21.8825 2.38311 23.0915 2.38311 24.4245V28.4667C2.38311 29.0326 1.92578 29.4896 1.36004 29.4896C0.794297 29.4896 0.333008 29.0326 0.333008 28.4667V24.4245C0.333008 22.5256 1.10807 20.8009 2.35986 19.5531C3.53797 18.375 5.13854 17.6152 6.90959 17.534C6.37488 16.5457 6.0726 15.4177 6.0726 14.2205V7.7947C6.0726 6.58966 6.56479 5.49291 7.35912 4.69816C8.15373 3.90382 9.25049 3.41164 10.4558 3.41164H15.7381C16.9434 3.41164 18.0403 3.90382 18.8346 4.69816C19.6253 5.49291 20.1174 6.58953 20.1174 7.7947V14.2205C20.1174 15.4142 19.819 16.5418 19.2881 17.5263H20.0748C20.6367 17.5263 21.191 17.6037 21.7064 17.8054C22.2296 18.0068 22.7102 18.3167 23.1248 18.7314L32.6044 28.1992L35.6157 25.1841C36.0187 24.7849 36.666 24.7849 37.0691 25.1841C37.4681 25.587 37.4681 26.2344 37.0691 26.6336L34.0539 29.6486L35.542 31.1371C36.0498 31.6408 36.3986 32.323 36.5807 33.0089L43.9094 25.6995C44.0953 25.4827 44.3744 25.3471 44.6844 25.3471C45.2503 25.3471 45.7115 25.8043 45.7115 26.37V40.2907H57.2374V26.7654C57.2374 26.1995 57.6947 25.7381 58.2644 25.7381C58.8303 25.7381 59.2875 26.1995 59.2875 26.7654V40.2907H62.8143V24.4245C62.8143 23.0915 62.268 21.8823 61.3922 21.0026C60.5122 20.1229 59.2991 19.5763 57.9699 19.5763H57.0243C55.7997 20.6151 54.2184 21.2428 52.4938 21.2428C50.7692 21.2428 49.184 20.615 47.9594 19.5725C46.8278 19.557 44.4598 19.243 43.4095 20.2931L40.565 23.1378C40.1618 23.537 39.5144 23.537 39.1153 23.1378C38.7123 22.7386 38.7123 22.0876 39.1153 21.6883L42.0686 18.7312C42.4833 18.3205 42.9638 18.0105 43.4909 17.8052C44.0141 17.6036 44.5682 17.5108 45.1263 17.5262H46.3044C45.7735 16.5417 45.4712 15.414 45.4712 14.2203V7.79457C45.4712 6.58953 45.9634 5.49277 46.7578 4.69802C47.5524 3.90369 48.6491 3.4115 49.8543 3.4115H55.1367C56.342 3.4115 57.4388 3.90369 58.2333 4.69802C59.0238 5.49277 59.5199 6.58939 59.5199 7.79457V14.2203C59.5199 15.4295 59.2098 16.5689 58.6673 17.5609C60.2875 17.7276 61.7446 18.4563 62.8414 19.5529C64.0892 20.8008 64.8644 22.5255 64.8644 24.4244V40.2907H69.3095C69.8754 40.2907 70.3327 40.7519 70.3327 41.3177V49.0378C70.3327 49.6037 69.8753 50.0649 69.3095 50.0649H64.8644V66.7644C64.8644 67.3302 64.4069 67.7914 63.8412 67.7914H5.52231C4.95643 67.7914 4.49924 67.3302 4.49924 66.7644V42.2402C3.47617 42.0348 2.56139 41.5311 1.85223 40.822C0.914336 39.8838 0.333008 38.5855 0.333008 37.1516V33.1097C0.333008 32.5438 0.79416 32.0865 1.36004 32.0865C1.92592 32.0865 2.38311 32.5439 2.38311 33.1097V37.1516C2.38311 38.0198 2.7357 38.8027 3.30158 39.3725C3.87129 39.9421 4.65811 40.2908 5.52231 40.2908H5.90977V26.7655C5.90977 26.1996 6.37105 25.7382 6.93693 25.7382C7.50268 25.7382 7.96 26.1996 7.96 26.7655V40.2908H19.4898V26.3701C19.4898 25.8043 19.9471 25.3472 20.5128 25.3472C20.8267 25.3472 21.102 25.4828 21.2917 25.7036L31.1394 35.5396C31.5425 35.9425 32.0619 36.1402 32.5889 36.1402C33.1316 36.1402 33.6819 35.9311 34.1198 35.5202L34.1664 35.4776C34.5771 35.063 34.7165 34.5164 34.6778 33.9933C34.6392 33.4392 34.4221 32.9276 34.1276 32.6135L34.1005 32.5866C29.9615 28.4514 25.8223 24.3162 21.6833 20.181C21.1718 19.6694 20.6949 19.5764 20.013 19.5764H17.6255C16.4009 20.6152 14.8197 21.2429 13.095 21.2429C11.3744 21.2429 9.7893 20.6151 8.56457 19.5763ZM57.4661 12.2944C55.8889 12.5384 53.2187 12.5577 51.0252 10.5891C50.2694 11.0425 49.033 11.5657 47.5216 11.4105V14.2205C47.5216 15.5885 48.0835 16.8285 48.9866 17.7317C49.8856 18.6346 51.1299 19.1927 52.4939 19.1927C53.8619 19.1927 55.106 18.6346 56.0052 17.7317C56.9082 16.8287 57.4661 15.5885 57.4661 14.2205V12.2944ZM47.5215 9.35289C48.5601 9.52324 49.6918 9.17447 50.4746 8.48076C50.901 8.11285 51.5483 8.15919 51.9164 8.58548C53.7303 10.6704 56.2648 10.4729 57.4661 10.2247V7.7947C57.4661 7.1554 57.2066 6.57011 56.7802 6.14765C56.3578 5.72519 55.7764 5.4616 55.1369 5.4616H49.8545C49.2149 5.4616 48.6336 5.72519 48.2073 6.14765C47.7848 6.57011 47.5213 7.1554 47.5213 7.7947V9.35289H47.5215ZM8.12283 11.4533C8.13445 12.0851 8.36318 12.6546 8.80875 13.1043C9.23504 13.5268 9.81637 13.7863 10.4559 13.7863H15.7382C16.3778 13.7863 16.9591 13.5268 17.3816 13.1043C17.804 12.6819 18.0675 12.1005 18.0675 11.461V7.7947C18.0675 7.1554 17.8079 6.57011 17.3816 6.14765C16.9591 5.72519 16.3778 5.4616 15.7382 5.4616H10.4559C9.81637 5.4616 9.23504 5.72519 8.80875 6.14765C8.38629 6.57011 8.12283 7.1554 8.12283 7.7947V11.4533ZM17.9666 15.228C17.3116 15.6154 16.5481 15.8403 15.7381 15.8403H10.4559C9.64205 15.8403 8.88244 15.6154 8.22742 15.228C8.42908 16.1931 8.90951 17.0571 9.58381 17.7316C10.4868 18.6344 11.7308 19.1925 13.0952 19.1925C14.4633 19.1925 15.7072 18.6344 16.6064 17.7316C17.2807 17.0571 17.7651 16.1931 17.9666 15.228ZM44.6498 50.0649C44.084 50.0649 43.6228 49.6037 43.6228 49.0378C43.6228 48.4719 44.084 48.0146 44.6498 48.0146H68.2828V42.3411C52.7033 42.3411 37.1196 42.3411 21.5399 42.3411V48.0146H39.7045C40.2703 48.0146 40.7316 48.4721 40.7316 49.0378C40.7316 49.6037 40.2703 50.0649 39.7045 50.0649H21.5399V65.7413H62.8143V50.0649H44.6498ZM21.5399 40.2908H43.6575V28.8387L35.9878 36.4851C35.0577 37.4114 33.9028 38.1904 32.5889 38.1904C31.5426 38.1904 30.504 37.7952 29.6979 36.9891L21.5399 28.8389V40.2908ZM11.9944 65.7413V46.7785C11.9944 46.2127 12.4518 45.7553 13.0176 45.7553C13.5834 45.7553 14.0447 46.2128 14.0447 46.7785V65.7413H19.4898V42.3411H6.54934V65.7413H11.9944Z" fill="url(#paint0_linear_856_5873)"/>
</g>
<defs>
<linearGradient id="paint0_linear_856_5873" x1="35.3322" y1="3.4115" x2="35.3322" y2="67.7914" gradientUnits="userSpaceOnUse">
<stop stop-color="#FFF792"/>
<stop offset="0.309804" stop-color="#FCD863"/>
<stop offset="0.670588" stop-color="#E2B13C"/>
<stop offset="1" stop-color="#E8C44D"/>
</linearGradient>
<clipPath id="clip0_856_5873">
<rect width="70" height="70" fill="white" transform="translate(0.333008 0.601562)"/>
</clipPath>
</defs>
</svg>
