<svg width="71" height="71" viewBox="0 0 71 71" fill="none" xmlns="http://www.w3.org/2000/svg">
<g clip-path="url(#clip0_856_5870)">
<path d="M68.8113 17.6574C67.4634 16.308 65.6697 15.5643 63.7623 15.5643C64.2162 14.6537 64.4719 13.6297 64.4719 12.5496V6.35627C64.4719 5.18186 63.9905 4.11545 63.2195 3.34436C62.4483 2.57327 61.382 2.09338 60.2076 2.09338H55.1162C53.9459 2.09338 52.8796 2.57327 52.1084 3.34436C51.3373 4.11545 50.8561 5.18186 50.8561 6.35627V12.5483C50.8561 13.6297 51.1117 14.6537 51.5615 15.5643C49.7281 15.5643 48.0506 16.2656 46.7832 17.4168C46.283 16.9588 45.7142 16.576 45.0975 16.2766C44.1255 15.8049 43.074 15.5643 41.9926 15.5643C42.4465 14.6537 42.7021 13.6297 42.7021 12.5483V6.35627C42.7021 5.18186 42.2223 4.11545 41.4498 3.34436C40.6787 2.57327 39.6137 2.09338 38.4393 2.09338H33.3465C32.1762 2.09338 31.1098 2.57327 30.3387 3.34436C29.5635 4.11545 29.0877 5.18186 29.0877 6.35627V12.5496C29.0877 13.6311 29.3393 14.6537 29.7932 15.5656C28.6926 15.5656 27.6412 15.8213 26.7033 16.278C26.0881 16.576 25.5221 16.9602 25.0176 17.4168C23.6969 16.2164 22.007 15.5656 20.2242 15.5656C20.6768 14.6537 20.9256 13.6311 20.9256 12.5496V3.98147C20.9256 2.92737 20.0027 2.10159 19.0457 2.09338H11.5768C10.4064 2.09338 9.34004 2.57327 8.56895 3.34436C7.79785 4.11545 7.31797 5.18186 7.31797 6.35627V12.5483C7.31797 13.6297 7.5709 14.6537 8.02344 15.5643C6.06289 15.5643 4.28418 16.3668 2.99355 17.6561C1.70293 18.9481 0.900391 20.7268 0.900391 22.6873V36.0461C0.900391 37.5336 1.50469 38.8789 2.47812 39.851C3.22187 40.5961 4.18301 41.1225 5.25625 41.3317V50.6367C5.25625 51.2029 5.71699 51.6608 6.28301 51.6608C6.84902 51.6608 7.30703 51.2028 7.30703 50.6367V41.4287H20.9557V65.453C20.9023 65.7293 20.685 65.9492 20.4061 65.9998H15.1588V45.0408C15.1588 44.4748 14.698 44.0141 14.132 44.0141C13.566 44.0141 13.108 44.4748 13.108 45.0408V65.9998H7.85664C7.58184 65.9492 7.36035 65.7279 7.30703 65.453V55.2797C7.30703 54.7137 6.84902 54.2572 6.28301 54.2572C5.71699 54.2572 5.25625 54.7138 5.25625 55.2797V65.5119C5.25625 66.775 6.55918 68.0494 7.79922 68.0494H20.4648C21.7281 68.0494 23.0064 66.756 23.0064 65.5119V41.3317C23.7434 41.1881 24.4256 40.8983 25.0189 40.4908C25.3361 40.7084 25.6738 40.8901 26.0307 41.0338C26.352 41.165 26.6814 41.2621 27.026 41.3318V50.6369C27.026 51.203 27.4867 51.6609 28.0527 51.6609C28.6188 51.6609 29.0768 51.2029 29.0768 50.6369V41.4287H42.7254V65.453C42.698 65.5925 42.6324 65.7127 42.5354 65.8098C42.4396 65.9069 42.3152 65.9723 42.1758 65.9998H36.9285V45.0408C36.9285 44.4748 36.4664 44.0141 35.9004 44.0141C35.3357 44.0141 34.8777 44.4748 34.8777 45.0408V65.9998H29.6264C29.4869 65.9725 29.3625 65.9069 29.2668 65.8098C29.1725 65.7127 29.1027 65.5924 29.0768 65.453V55.2797C29.0768 54.7151 28.6188 54.2572 28.0527 54.2572C27.4867 54.2572 27.026 54.7138 27.026 55.2797V65.5119C27.026 66.1201 27.402 66.8365 27.8244 67.259C28.251 67.6856 28.9564 68.0492 29.5689 68.0492H42.2373C42.8416 68.0492 43.5594 67.6774 43.9777 67.259C44.407 66.8324 44.7762 66.1242 44.7762 65.5119V41.3317C45.1208 41.2619 45.4543 41.1649 45.7715 41.0336C46.1282 40.8899 46.4688 40.7082 46.7831 40.4907C47.3805 40.8981 48.0628 41.1881 48.7942 41.3315V50.6366C48.7942 51.2028 49.2564 51.6606 49.8225 51.6606C50.3871 51.6606 50.8492 51.2026 50.8492 50.6366V41.4287H64.4953V65.453C64.4679 65.5925 64.4021 65.7127 64.3093 65.8098C64.2122 65.9069 64.0837 65.9723 63.9443 65.9998H58.697V45.0408C58.697 44.4748 58.2363 44.0141 57.6703 44.0141C57.1041 44.0141 56.6476 44.4748 56.6476 45.0408V65.9998H51.3949C51.1201 65.9492 50.8999 65.7293 50.8494 65.453V55.2797C50.8494 54.7151 50.3872 54.2572 49.8226 54.2572C49.2566 54.2572 48.7943 54.7138 48.7943 55.2797V65.5119C48.7943 66.1201 49.1703 66.8365 49.5929 67.259C50.0193 67.6856 50.7248 68.0506 51.3374 68.0506H64.0072C64.6115 68.0506 65.3279 67.6787 65.7503 67.259C66.1769 66.8339 66.5447 66.1242 66.5447 65.5119V41.3317C67.622 41.1225 68.5831 40.5961 69.3283 39.8524C70.3003 38.8789 70.9005 37.535 70.9005 36.0461V22.6873C70.9004 20.7268 70.102 18.9481 68.8113 17.6574ZM9.36738 6.35627C9.36738 5.74788 9.61484 5.1969 10.0182 4.79358C10.4174 4.39436 10.9711 4.1428 11.5768 4.1428H18.883V7.19709H9.36875V6.78831H9.36738V6.35627ZM10.7633 15.9088C9.90332 15.0448 9.36875 13.8594 9.36875 12.5483V9.24651H18.883V12.5483C18.883 13.8156 18.3758 15.0133 17.4844 15.9088C16.6189 16.7688 15.4295 17.3074 14.1238 17.3074C12.8182 17.3074 11.6273 16.7729 10.7633 15.9088ZM16.2238 29.217C16.2744 29.3961 16.2785 29.3496 16.1541 29.4576L14.1238 31.302L12.0662 29.4344C11.9609 29.3414 11.9801 29.3729 12.0115 29.2635L14.1238 21.8342L16.2238 29.217ZM25.3129 36.0461C25.3129 36.969 24.9396 37.8016 24.3354 38.4018C23.9676 38.7708 23.5137 39.0539 23.0064 39.2166V23.5746C23.0064 23.0045 22.5498 22.5479 21.9797 22.5479C21.4137 22.5479 20.9557 23.0045 20.9557 23.5746V39.3793H7.30703V23.5746C7.30703 23.0045 6.84902 22.5479 6.28301 22.5479C5.71699 22.5479 5.25625 23.0045 5.25625 23.5746V39.2166C4.74902 39.0539 4.29512 38.7708 3.92734 38.4018C3.32305 37.8014 2.95117 36.969 2.95117 36.0461V22.6873C2.95117 21.2955 3.52402 20.0254 4.44277 19.1067C5.36152 18.1879 6.63164 17.6137 8.02344 17.6137H9.58477C10.4652 18.4012 11.5467 18.9672 12.7402 19.2147L10.0195 28.7877C9.91016 29.1678 9.91016 29.5397 10.0154 29.9033C10.1043 30.2246 10.2793 30.524 10.535 30.7989C10.5623 30.8303 10.5896 30.8604 10.6197 30.8877L12.9303 32.985C13.2283 33.2707 13.7164 33.4457 14.1279 33.4457C14.5271 33.4416 14.9988 33.2748 15.2982 33.0041L17.6266 30.8877C18.1926 30.3641 18.4373 29.5356 18.2281 28.7877L15.5074 19.2147C16.701 18.9672 17.7824 18.4012 18.6615 17.6137H20.2393C21.6338 17.6137 22.9012 18.1879 23.8199 19.1067C24.7428 20.024 25.3129 21.2955 25.3129 22.6873V36.0461ZM31.1371 6.35627C31.1371 5.74788 31.3859 5.1969 31.7879 4.79358C32.1871 4.39436 32.7422 4.1428 33.3465 4.1428H38.4393C39.0475 4.1428 39.5973 4.39436 40.0006 4.79358C40.3998 5.1969 40.6471 5.74788 40.6471 6.35627V8.66956C39.5971 8.88284 37.5245 9.05374 35.8729 7.60315C34.7299 6.59963 34.529 6.71584 33.4051 7.35569C33.0087 7.57991 32.5985 7.73987 32.1487 7.81643C31.8383 7.86702 31.502 7.87932 31.137 7.82463V6.35627H31.1371ZM31.1371 9.88225C31.6184 9.92874 32.0668 9.90549 32.4865 9.83577C33.2686 9.70452 33.9166 9.41741 34.3883 9.1467C34.4512 9.11116 34.4662 9.08791 34.525 9.1426C36.6168 10.9719 39.1324 10.9719 40.6473 10.7395V12.5483C40.6473 13.8321 40.1361 14.9983 39.3033 15.8541C38.3504 16.7852 37.2457 17.3074 35.8922 17.3074C34.54 17.3074 33.4395 16.7852 32.4824 15.8541C31.6484 14.9983 31.1371 13.8321 31.1371 12.5483V9.88225ZM37.9854 29.1979C38.0441 29.4002 38.051 29.3414 37.9115 29.4699L35.8922 31.302L33.877 29.4727C33.7184 29.3291 33.7457 29.3879 33.8004 29.1979L35.8922 21.8342L37.9854 29.1979ZM45.3148 38.991C44.8294 39.2467 44.2989 39.3793 43.752 39.3793H28.0527C27.5018 39.3793 26.9713 39.2467 26.4873 38.991C27.041 38.1461 27.3623 37.1358 27.3623 36.0461V22.6873C27.3623 21.3379 26.9822 20.0719 26.3246 18.9932C26.7006 18.6418 27.1258 18.3424 27.5947 18.1182C28.2578 17.7969 29.0057 17.6137 29.7932 17.6137H31.3545C32.2336 18.4012 33.315 18.9672 34.51 19.2147L31.7879 28.7877C31.684 29.1678 31.6799 29.5397 31.7852 29.9033C31.8863 30.252 32.1174 30.6403 32.3936 30.8877L34.6986 32.985C34.998 33.2707 35.4861 33.4457 35.8963 33.4457C36.2954 33.4416 36.7684 33.2748 37.0666 33.0041L39.3963 30.8877C39.6752 30.6321 39.8762 30.3149 39.9855 29.9498C40.0895 29.593 40.0977 29.1473 39.9965 28.7877L37.2758 19.2147C38.4693 18.9672 39.555 18.4012 40.4313 17.6137H42.009C42.7992 17.6137 43.5471 17.7969 44.2103 18.1182C44.675 18.3424 45.1017 18.6418 45.4777 18.9932C44.8188 20.0719 44.4386 21.3393 44.4386 22.6873V36.0461C44.4385 37.1356 44.7598 38.1461 45.3148 38.991ZM52.9068 6.35627C52.9068 5.74788 53.1544 5.1969 53.5578 4.79358C53.957 4.39436 54.5107 4.1428 55.115 4.1428H60.2078C60.8162 4.1428 61.367 4.39436 61.7691 4.79358C62.1683 5.1969 62.4214 5.74788 62.4214 6.35627V8.72698L57.7511 7.14651C57.36 7.01526 56.9649 6.95647 56.5684 6.97971C56.1692 7.00295 55.7782 7.11096 55.3872 7.301L52.907 8.5178L52.9068 6.35627ZM52.9055 10.7901L56.2824 9.1385C56.5613 9.00315 56.8047 8.98674 57.0959 9.08791L62.4211 10.8899V12.5483C62.4211 13.8594 61.8824 15.0448 61.0211 15.9088C60.157 16.7729 58.9717 17.3074 57.6619 17.3074C56.3549 17.3074 55.1654 16.7729 54.3055 15.9088C53.4414 15.0448 52.9055 13.8594 52.9055 12.5483V10.7901ZM59.7004 29.001C59.8248 29.4467 59.8713 29.299 59.5719 29.5698L57.6619 31.302L55.86 29.6627C55.4607 29.3032 55.4908 29.4768 55.6234 29.0078L57.6619 21.8342L59.7004 29.001ZM68.8496 36.0461C68.8496 36.969 68.4777 37.8016 67.8734 38.4018C67.5057 38.7708 67.0516 39.0539 66.5444 39.2166V23.5746C66.5444 23.0045 66.0864 22.5479 65.5219 22.5479C64.9557 22.5479 64.4936 23.0045 64.4936 23.5746V39.3793H50.8477V23.5746C50.8477 23.0045 50.387 22.5479 49.821 22.5479C49.2548 22.5479 48.7941 23.0045 48.7941 23.5746V39.2166C48.2897 39.0539 47.8331 38.7708 47.4652 38.4018C46.8637 37.8014 46.4917 36.969 46.4917 36.0461V22.6873C46.4917 21.2955 47.0618 20.0254 47.9807 19.1067C48.9021 18.1879 50.1696 17.6151 51.5655 17.6151H53.1227C54.0032 18.4012 55.0848 18.9672 56.2782 19.2147L53.5576 28.7877C53.4522 29.1678 53.4481 29.5397 53.5535 29.9033C53.6547 30.252 53.887 30.6403 54.1619 30.8877L56.4684 32.985C56.7664 33.2707 57.2545 33.4498 57.666 33.4498C58.0611 33.4498 58.5369 33.2748 58.8363 33.0041L61.1646 30.8877C61.4436 30.6321 61.6459 30.3149 61.7539 29.9498C61.8593 29.593 61.866 29.1473 61.7663 28.7877L59.0456 19.2147C60.2433 18.9672 61.3247 18.4012 62.1997 17.6137H63.7775C65.1719 17.6137 66.4394 18.1879 67.358 19.1067C68.2809 20.024 68.8496 21.2955 68.8496 22.6873V36.0461Z" fill="url(#paint0_linear_856_5870)"/>
</g>
<defs>
<linearGradient id="paint0_linear_856_5870" x1="35.8998" y1="2.09338" x2="35.8998" y2="68.0506" gradientUnits="userSpaceOnUse">
<stop stop-color="#FFF792"/>
<stop offset="0.309804" stop-color="#FCD863"/>
<stop offset="0.670588" stop-color="#E2B13C"/>
<stop offset="1" stop-color="#E8C44D"/>
</linearGradient>
<clipPath id="clip0_856_5870">
<rect width="70" height="70" fill="white" transform="translate(0.900391 0.0712891)"/>
</clipPath>
</defs>
</svg>
