<svg width="70" height="71" viewBox="0 0 70 71" fill="none" xmlns="http://www.w3.org/2000/svg">
<g clip-path="url(#clip0_856_5864)">
<path d="M19.4557 56.9798C20.8664 57.5262 22.0678 58.2432 22.9709 59.0843C23.2964 59.3866 23.5871 59.7083 23.8351 60.0415C24.0831 59.7081 24.3738 59.3864 24.6993 59.0843C25.6023 58.2433 26.8037 57.5262 28.2105 56.9798C27.6252 55.8907 27.2919 54.6506 27.2919 53.3368V46.1748C27.2919 44.861 27.8268 43.6713 28.691 42.807C29.5552 41.9426 30.7449 41.4078 32.0587 41.4078H37.9419C39.2556 41.4078 40.4454 41.9426 41.3097 42.807C42.1738 43.6713 42.7087 44.8609 42.7087 46.1748V53.3368C42.7087 54.6506 42.3754 55.8907 41.7864 56.9798C43.1971 57.5262 44.3984 58.2432 45.3016 59.0843C45.6271 59.3866 45.9177 59.7083 46.1657 60.0415C46.4137 59.7081 46.7042 59.3864 47.0297 59.0843C47.9328 58.2433 49.1342 57.5262 50.5449 56.9798C49.9558 55.8907 49.6226 54.6506 49.6226 53.3368V46.1748C49.6226 44.861 50.1574 43.6713 51.0215 42.807C51.8858 41.9426 53.0754 41.4078 54.3893 41.4078H60.2724C61.5862 41.4078 62.7758 41.9426 63.6402 42.807C64.5043 43.6713 65.0391 44.8609 65.0391 46.1748V53.3368C65.0391 54.6506 64.7058 55.8907 64.1208 56.9798C65.5275 57.5262 66.7289 58.2432 67.632 59.0843C68.8334 60.2005 69.5231 61.5296 69.5231 62.9831V69.0484C69.5231 69.6142 69.062 70.0714 68.4961 70.0714H46.1657H23.8351H1.50457C0.938691 70.0714 0.477539 69.6141 0.477539 69.0484V62.9831C0.477539 61.5298 1.16742 60.2005 2.36877 59.0843C3.2718 58.2433 4.46932 57.5262 5.87998 56.9798C5.29469 55.8907 4.9615 54.6506 4.9615 53.3368V46.1748C4.9615 43.551 7.10471 41.4078 9.72834 41.4078H19.3512C19.9169 41.4078 20.3782 41.8651 20.3782 42.4348V53.3368C20.3782 54.6505 20.0449 55.8907 19.4557 56.9798ZM7.0116 47.3064H18.3279V43.458H9.72834C8.23619 43.458 7.0116 44.6826 7.0116 46.1748V47.3064ZM18.3279 49.3565H7.0116V53.3366C7.0116 54.8907 7.64721 56.3052 8.67424 57.3284C9.70127 58.3554 11.1158 58.9912 12.6698 58.9912C14.2239 58.9912 15.6386 58.3556 16.6656 57.3284C17.6887 56.3054 18.3281 54.8907 18.3281 53.3366V49.3565H18.3279ZM29.3421 48.0041C29.8345 48.097 30.2878 48.0894 30.6987 48.0195C31.2916 47.9226 31.776 47.7094 32.2914 47.4188C33.427 46.7715 33.6633 46.6824 34.8687 47.7365C36.9032 49.5154 39.4571 49.2441 40.6585 48.9767V46.1746C40.6585 45.4266 40.3525 44.7484 39.8603 44.2563C39.3681 43.7641 38.6859 43.458 37.942 43.458H32.0589C31.3109 43.458 30.6326 43.7641 30.1406 44.2563C29.6484 44.7485 29.3421 45.4268 29.3421 46.1746V48.0041ZM40.6585 51.054C38.9573 51.3447 35.9809 51.426 33.5238 49.2751C33.3728 49.1395 33.3455 49.1705 33.1828 49.2635C32.6518 49.5658 31.9155 49.8913 31.0358 50.0386C30.5166 50.1239 29.9507 50.151 29.3421 50.0734V53.3366C29.3421 54.8907 29.9778 56.3052 31.0048 57.3284C32.0318 58.3554 33.4463 58.9912 35.0005 58.9912C36.5546 58.9912 37.969 58.3556 38.996 57.3284C40.0192 56.3054 40.6585 54.8907 40.6585 53.3366V51.054ZM51.673 48.9264L54.7694 47.411C55.618 46.9963 56.4862 46.9382 57.3814 47.2405L62.9893 49.1395V46.1748C62.9893 45.4268 62.6831 44.7485 62.1909 44.2565C61.6987 43.7643 61.0206 43.4582 60.2726 43.4582H54.3894C53.6455 43.4582 52.9632 43.7643 52.4711 44.2565C51.9789 44.7487 51.673 45.4269 51.673 46.1748V48.9264ZM62.9893 51.302L56.7264 49.1822C56.3467 49.0542 56.0249 49.0698 55.6643 49.2481L51.6728 51.2014V53.3368C51.6728 54.8909 52.3121 56.3054 53.3353 57.3286C54.3624 58.3556 55.7767 58.9913 57.3309 58.9913C58.885 58.9913 60.2995 58.3557 61.3265 57.3286C62.3536 56.3055 62.9893 54.8909 62.9893 53.3368V51.302ZM7.1434 58.6967C5.74436 59.1733 4.5817 59.8205 3.76398 60.5801C2.97717 61.3087 2.52764 62.1342 2.52764 62.983V68.0212H22.8081V62.983C22.8081 62.1342 22.3586 61.3087 21.5757 60.5801C20.758 59.8205 19.5953 59.1733 18.1963 58.6967C16.7391 60.1965 14.7626 61.0453 12.6698 61.0453C10.5771 61.0451 8.59672 60.1964 7.1434 58.6967ZM51.8045 58.6967C50.4055 59.1733 49.2429 59.8205 48.4249 60.5801C47.6422 61.3087 47.1926 62.1342 47.1926 62.983V68.0212H67.4692V62.983C67.4692 62.1342 67.0198 61.3087 66.2368 60.5801C65.4192 59.8205 64.2563 59.1733 62.8572 58.6967C61.4001 60.1965 59.4236 61.0453 57.3308 61.0453C55.242 61.0451 53.2579 60.1964 51.8045 58.6967ZM29.4739 58.6967C28.075 59.1733 26.9122 59.8205 26.0945 60.5801C25.3117 61.3087 24.8583 62.1342 24.8583 62.983V68.0212H45.1388V62.983C45.1388 62.1342 44.6891 61.3087 43.9064 60.5801C43.0885 59.8205 41.9259 59.1733 40.5268 58.6967C39.0737 60.1965 37.0893 61.0453 35.0005 61.0453C32.9076 61.0451 30.9273 60.1964 29.4739 58.6967ZM67.4693 11.694C67.4693 11.1281 67.9305 10.667 68.4963 10.667C69.0622 10.667 69.5234 11.1281 69.5234 11.694V35.9743C69.5234 37.6368 68.1669 38.9895 66.5044 38.9895H62.8071H52.6959H47.6384H37.5274H32.4737H22.3587H17.3049H7.18988H3.49273C1.83406 38.9895 0.477539 37.6368 0.477539 35.9743V3.08648C0.477539 1.42768 1.83393 0.0712891 3.49273 0.0712891H57.9008C58.4664 0.0712891 58.9237 0.532441 58.9237 1.09832C58.9237 1.6642 58.4663 2.12139 57.9008 2.12139H3.49273C2.96555 2.12139 2.52764 2.5593 2.52764 3.08648V16.333L12.1622 22.3789L26.7612 10.2136C27.1099 9.9268 27.6099 9.89576 27.9858 10.1438L42.3637 19.7319L49.7504 10.3453C50.1301 9.86473 50.8434 9.82207 51.2773 10.2522L54.8079 13.3371L66.0197 2.12125H62.5435C61.9776 2.12125 61.5203 1.66393 61.5203 1.09818C61.5203 0.532441 61.9779 0.0712891 62.5436 0.0712891H68.4962C69.0621 0.0712891 69.5232 0.532441 69.5232 1.09832V7.04736C69.5232 7.61707 69.0621 8.07439 68.4962 8.07439C67.9303 8.07439 67.4692 7.61707 67.4692 7.04736V3.57484L55.5792 15.4649C55.2032 15.8407 54.591 15.8641 54.1839 15.5075L50.6923 12.4573L43.4219 21.7044C43.1 22.154 42.48 22.2741 42.0149 21.9642L27.482 12.2754L12.9449 24.3903C12.6116 24.6964 12.104 24.7583 11.7009 24.5065L2.52764 18.7475V35.9743C2.52764 36.5014 2.96555 36.9393 3.49273 36.9393H6.16682V28.4828C6.16682 27.9169 6.62414 27.4597 7.18988 27.4597H17.3049C17.8708 27.4597 18.3279 27.9171 18.3279 28.4828V33.2265V36.9393H21.3354V20.4798C21.3354 19.914 21.7927 19.4528 22.3584 19.4528H32.4734C33.0393 19.4528 33.4965 19.914 33.4965 20.4798V25.0065V29.223V33.4357V36.9391H36.5039V29.5369C36.5039 28.9712 36.9613 28.5138 37.5271 28.5138H47.6381C48.208 28.5138 48.6652 28.9712 48.6652 29.5369V36.9393H51.6727V19.2126C51.6727 18.6467 52.1299 18.1895 52.6956 18.1895H62.8067C63.3765 18.1895 63.834 18.6469 63.834 19.2126V36.9393H66.5039C67.0351 36.9393 67.469 36.5014 67.469 35.9743V11.694H67.4693ZM42.5849 34.7768C42.019 34.7768 41.5578 34.3195 41.5578 33.7498C41.5578 33.1839 42.019 32.7266 42.5849 32.7266H46.6153V30.5641H38.5543V36.9393H46.6153V34.7768H42.5849ZM57.7534 33.8273C57.1875 33.8273 56.7264 33.37 56.7264 32.8042C56.7264 32.2383 57.1875 31.7772 57.7534 31.7772H61.7839V29.6147H57.7534C57.1875 29.6147 56.7264 29.1574 56.7264 28.5916C56.7264 28.0219 57.1875 27.5646 57.7534 27.5646H61.7839V25.4021H57.7534C57.1875 25.4021 56.7264 24.9408 56.7264 24.3751C56.7264 23.8094 57.1875 23.352 57.7534 23.352H61.7839V20.2399H53.7228V36.9396H61.7839V33.8276H57.7534V33.8273ZM27.4161 34.4628C26.8502 34.4628 26.389 34.0016 26.389 33.4357C26.389 32.8698 26.8502 32.4087 27.4161 32.4087H31.4465V30.2462H27.4161C26.8502 30.2462 26.389 29.7889 26.389 29.2231C26.389 28.6573 26.8502 28.1961 27.4161 28.1961H31.4465V26.0335H27.4161C26.8502 26.0335 26.389 25.5762 26.389 25.0065C26.389 24.4406 26.8502 23.9834 27.4161 23.9834H31.4465V21.503H23.3854V36.9393H31.4465V34.4628H27.4161ZM12.2474 34.2497C11.6815 34.2497 11.2204 33.7924 11.2204 33.2267C11.2204 32.657 11.6816 32.1995 12.2474 32.1995H16.2779V29.51H8.21691V36.9394H16.2779V34.2499H12.2474V34.2497Z" fill="url(#paint0_linear_856_5864)"/>
</g>
<defs>
<linearGradient id="paint0_linear_856_5864" x1="34.9998" y1="0.0712891" x2="34.9998" y2="70.0714" gradientUnits="userSpaceOnUse">
<stop stop-color="#FFF792"/>
<stop offset="0.309804" stop-color="#FCD863"/>
<stop offset="0.670588" stop-color="#E2B13C"/>
<stop offset="1" stop-color="#E8C44D"/>
</linearGradient>
<clipPath id="clip0_856_5864">
<rect width="70" height="70" fill="white" transform="translate(0 0.0712891)"/>
</clipPath>
</defs>
</svg>
