<svg width="217" height="76" viewBox="0 0 217 76" fill="none" xmlns="http://www.w3.org/2000/svg">
<path fill-rule="evenodd" clip-rule="evenodd" d="M187.622 25.164C186.404 25.7314 185.133 26.1536 183.833 26.3548C181.815 26.6672 179.481 26.434 177.819 25.1444L176.548 24.1583L177.345 22.7613C178.245 21.1849 179.346 19.5075 180.771 18.2907C180.755 18.2733 180.739 18.2557 180.722 18.238C179.251 16.6506 178.497 14.5377 178.113 12.4413C177.802 10.7483 177.718 9.01194 177.725 7.29317C177.728 6.66034 177.745 6.02891 177.759 5.39628C177.763 5.17072 177.78 4.87832 177.769 4.63135C177.345 3.73734 177.008 2.83213 177.449 1.83244C177.828 0.973457 178.618 0.513142 179.516 0.376449L180.523 0.223145L181.128 0.916818C181.783 1.19401 184.704 1.43077 185.454 1.50122C190.165 1.72117 192.805 6.1668 194.229 10.7105C194.318 10.1867 194.359 9.70442 194.333 9.31095C194.321 9.14403 194.279 8.55363 194.175 8.32868C194.172 8.32728 194.17 8.32588 194.167 8.32427C193.212 7.73927 192.514 6.86908 192.952 5.66686C193.141 5.1463 193.521 4.72422 194.03 4.49906C194.811 4.15323 195.538 4.36037 196.216 4.78066C196.657 5.05484 197.055 5.47673 197.32 5.92303C197.885 6.87649 198.131 7.98724 198.162 9.15784C198.648 8.83883 199.179 8.57284 199.79 8.37271C200.552 8.12314 201.433 7.96183 202.227 8.12934C203.479 8.39372 204.401 9.44204 203.976 10.7789C203.872 11.108 203.685 11.404 203.432 11.6389C202.67 12.346 201.872 12.2393 201.018 12.0036C200.561 12.0794 199.832 12.7155 199.225 13.3313C203.757 11.6151 208.988 10.9311 212.079 14.5587C212.595 15.1085 214.569 17.271 215.189 17.62L216.105 17.6735L216.601 18.5605C217.044 19.354 217.166 20.2616 216.719 21.0884C216.199 22.0496 215.276 22.3386 214.31 22.5512C214.108 22.6937 213.886 22.8858 213.711 23.0275C213.219 23.4258 212.73 23.8259 212.232 24.2153C210.878 25.273 209.453 26.2693 207.925 27.0605C205.944 28.0858 203.782 28.745 201.671 28.5423C201.581 30.413 200.929 32.31 200.236 33.985L199.62 35.4704L198.062 35.0705C195.976 34.535 194.34 32.7696 193.351 30.9315C192.674 29.6704 192.221 28.2791 191.936 26.8397C191.926 26.8529 191.916 26.8661 191.905 26.8791C191.51 27.3847 191.17 27.9427 190.779 28.456C190.376 28.9852 189.944 29.4405 189.322 29.7159C187.868 30.3603 186.069 29.675 186.002 27.9357C185.986 27.5108 186.103 27.0913 186.342 26.7388C186.637 26.3019 186.971 26.0916 187.371 25.9597C187.466 25.7117 187.556 25.4101 187.622 25.1634L187.622 25.164Z" fill="#FEFEFE"/>
<path fill-rule="evenodd" clip-rule="evenodd" d="M192.625 17.0108C187.11 11.6729 183.31 5.09704 185.492 5.00338C191.578 5.09985 192.625 17.0108 192.625 17.0108ZM184.29 13.0745C186.991 11.4622 191.048 16.6916 191.048 16.6916C185.972 19.0672 181.588 14.6866 184.29 13.0745ZM184.765 9.20505C186.049 8.66908 187.184 12.0634 187.184 12.0634C185.071 12.7499 183.481 9.73921 184.765 9.20505ZM183.711 6.45857C184.755 6.41354 184.736 8.17675 184.736 8.17675C183.173 8.37308 182.667 6.5054 183.711 6.45857ZM209.288 16.6713C210.545 18.453 203.025 19.4755 195.427 18.3827C195.427 18.3827 205.484 11.9195 209.288 16.6713ZM209.226 18.9707C209.83 19.8249 208.043 20.5686 207.24 19.2135C207.24 19.2135 208.623 18.1179 209.226 18.9707ZM202.668 19.6564C202.668 19.6564 206.046 18.4748 206.41 19.8189C206.773 21.161 203.42 21.7474 202.668 19.6564ZM203.642 22.5646C204.02 25.6879 197.874 24.9042 196.643 19.4356C196.643 19.4356 203.263 19.442 203.642 22.5646ZM195.83 27.8007C193.23 27.3875 194.486 19.3922 194.486 19.3922C198.177 23.3791 198.43 28.2136 195.83 27.8007ZM184.932 22.4581C183.017 20.6543 186.992 17.8934 192.403 18.3705C192.403 18.3705 186.85 24.2581 184.932 22.4581ZM179.552 4.06394C179.971 4.92913 178.029 16.2356 184.353 18.4748C181.935 18.9625 180.22 21.4634 178.955 23.6799C180.635 24.9836 185.231 25.7978 191.843 20.1595C191.751 20.6068 191.343 20.9987 191.124 21.2222C190.398 21.9183 189.881 23.6485 189.504 25.2814C189.342 25.9833 188.953 27.2217 188.599 27.5248C188.385 27.7123 187.844 27.596 187.854 27.865C187.866 28.16 188.255 28.1608 188.571 28.0217C188.883 27.8824 189.143 27.5446 189.305 27.3328C189.677 26.8441 190.089 26.194 190.445 25.7371C191.241 24.7218 192.5 23.3557 192.764 22.0998C192.894 20.6983 193.377 20.55 193.377 20.5528L193.44 20.4531C192.876 29.4977 196.427 32.7373 198.523 33.2757C199.5 30.9189 200.428 28.0301 199.333 25.8222C204.975 29.4495 212.725 20.9913 213.667 20.7934C214.607 20.5972 215.528 20.4403 214.983 19.465C214.163 19.4172 213.357 18.6149 210.696 15.7931C206.584 10.8966 196.811 16.3287 194.676 17.6062C194.754 17.2567 195.243 16.9659 195.023 16.444C195.025 16.4412 194.976 16.3713 194.886 16.2929C196.051 13.7455 199.257 9.85529 201.299 10.1611C201.491 10.1901 202.124 10.4879 202.21 10.2179C202.268 10.0356 202.019 9.98058 201.844 9.94335C201.455 9.8615 200.891 9.96216 200.367 10.1345C199.118 10.5432 198.278 11.3667 197.388 12.3088C196.32 13.4391 195.345 15.1265 194.696 16.166C194.658 16.1474 194.622 16.1294 194.577 16.1162C195.773 13.3919 197.111 9.20585 195.725 6.86865C195.645 6.73416 195.463 6.4948 195.238 6.3557C194.976 6.19299 194.77 6.08872 194.693 6.30047C194.61 6.52822 195.252 6.75017 195.485 6.99674C196.04 7.57814 196.135 8.45834 196.182 9.18764C196.275 10.5626 195.622 13.7421 194.368 16.0767C194.349 16.0763 194.329 16.0727 194.306 16.0735C194.099 16.1286 193.877 16.0757 193.658 16.8042C193.265 13.822 191.468 3.59442 185.325 3.35125C181.465 2.976 180.335 2.8291 179.795 2.20947C178.691 2.37739 179.132 3.20095 179.552 4.06454V4.06394Z" fill="#2F4A97" stroke="#2F4A97" stroke-width="0.75598" stroke-miterlimit="22.926" stroke-linecap="round" stroke-linejoin="round"/>
<path d="M106.304 55.6241C105.788 54.9415 105.558 54.1752 105.558 53.1399C105.558 52.6751 105.637 52.2124 105.8 51.7243C105.957 51.2522 106.149 50.8509 106.387 50.5014C106.544 50.3051 106.605 50.2897 106.904 50.2897C107.42 50.2897 107.48 50.37 107.589 50.5161C108.048 51.1243 108.27 51.9827 108.27 53.1401C108.27 53.9146 108.148 54.589 107.896 55.2025C107.891 55.2183 107.884 55.2341 107.878 55.2499C107.711 55.667 107.554 55.7775 107.478 55.8307C107.348 55.9224 107.006 55.9294 106.904 55.9294C106.588 55.9294 106.53 55.9205 106.304 55.6243V55.6241ZM45.292 55.6237C44.7758 54.9411 44.5453 54.1752 44.5453 53.1399C44.5453 52.6743 44.6245 52.2118 44.7864 51.7257C44.9441 51.2524 45.1373 50.8509 45.3746 50.5014C45.5315 50.3051 45.5926 50.2897 45.8916 50.2897C46.4073 50.2897 46.4672 50.3696 46.5765 50.5161C47.0352 51.1247 47.2581 51.9829 47.2581 53.1401C47.2581 53.9142 47.1356 54.589 46.8839 55.2037C46.8773 55.2193 46.8711 55.2347 46.8649 55.2505C46.6993 55.6666 46.5416 55.7771 46.465 55.8307C46.3351 55.9224 45.9931 55.9294 45.8916 55.9294C45.5768 55.9294 45.5179 55.9205 45.292 55.6239V55.6237ZM125.089 20.0108C123.109 21.9169 122.063 24.4523 122.063 27.3276L122.047 32.1479C120.852 31.6572 119.563 31.4042 118.216 31.4042C116.544 31.4042 114.908 31.8277 113.437 32.6361C113.137 32.4683 112.829 32.3092 112.515 32.1595C110.448 31.1793 107.955 30.6827 105.104 30.6827C103.283 30.6827 101.499 30.9977 99.7866 31.6248C98.309 32.1703 96.8394 32.9231 95.4194 33.8611C95.402 33.8725 95.3852 33.8839 95.3684 33.8955C92.5318 35.8174 90.2729 38.3051 88.6634 41.2714C87.6519 43.1172 86.8884 45.0183 86.393 46.9212C85.8969 48.8261 85.6457 50.9185 85.6457 53.1399C85.6457 53.7633 85.6715 54.3885 85.7242 55.0141H81.4493V31.024C81.4493 27.9509 80.6055 25.4237 78.9411 23.513C77.6709 22.0546 75.3475 20.3159 71.4939 20.3159C68.8913 20.3159 66.4872 21.1798 64.5215 22.8314C62.9929 24.1281 61.1714 26.5543 61.1714 30.7492V32.2056C59.9382 31.6768 58.6021 31.4042 57.2033 31.4042C55.5306 31.4042 53.8941 31.8281 52.425 32.6359C52.1242 32.4681 51.8168 32.3092 51.5026 32.1591C49.4352 31.1793 46.9421 30.6827 44.0924 30.6827C42.2711 30.6827 40.4865 30.9977 38.7743 31.6248C37.2981 32.1701 35.8289 32.9219 34.4078 33.8605C34.3901 33.8721 34.3725 33.8835 34.3553 33.8955C31.5194 35.8172 29.2606 38.3051 27.6511 41.2702C26.6393 43.1166 25.8757 45.0179 25.38 46.9212C24.8847 48.8243 24.6335 50.9163 24.6335 53.1399C24.6335 53.7633 24.6597 54.3885 24.7119 55.0141H20.4374V31.024C20.4374 27.9513 19.5928 25.4243 17.9283 23.513C16.6582 22.0546 14.3345 20.3159 10.4808 20.3159C7.87865 20.3159 5.47461 21.1798 3.50887 22.8314C1.98082 24.1281 0.15918 26.5543 0.15918 30.7492V64.7162C0.15918 67.136 1.08921 69.4406 2.84922 71.3815C4.16511 72.8317 6.53653 74.5605 10.3589 74.5605H26.2346C28.6044 74.5605 30.8289 73.7607 32.6676 72.2483C32.711 72.2131 32.753 72.177 32.7951 72.1404C32.9726 71.9845 33.1439 71.8238 33.3086 71.6591C33.5225 71.8272 33.7397 71.9911 33.9604 72.151C37.0658 74.3972 40.6866 75.5363 44.7224 75.5363C47.6236 75.5363 50.2482 74.8997 52.5101 73.6673C53.7476 74.3533 55.4541 74.9265 57.7013 74.9265C57.909 74.9265 58.1165 74.9141 58.3225 74.8891C60.7451 74.5977 62.8173 73.5796 64.3824 71.9121C65.768 73.2216 68.0075 74.5603 71.3716 74.5603H87.2472C89.6164 74.5603 91.841 73.7609 93.6796 72.2489C93.7232 72.2133 93.7657 72.1772 93.8075 72.1402C93.9852 71.9843 94.1569 71.8236 94.3212 71.6589C94.5348 71.827 94.7519 71.9905 94.9729 72.1502C98.0774 74.3968 101.698 75.5361 105.735 75.5361C108.636 75.5361 111.261 74.8999 113.523 73.6671C114.76 74.3531 116.467 74.9263 118.713 74.9263C118.922 74.9263 119.129 74.9139 119.335 74.8889C121.593 74.6169 123.547 73.7143 125.067 72.2451C126.935 74.0003 129.255 74.9263 131.794 74.9263C134.431 74.9263 136.855 73.9276 138.826 72.0189C139.906 70.9624 140.707 69.7054 141.213 68.2936L142.344 69.7692C142.366 69.7976 142.388 69.8258 142.411 69.8547C143.677 71.4371 144.673 72.458 145.639 73.1623C146.92 74.1034 148.481 74.685 150.278 74.8919C150.475 74.9143 150.673 74.9261 150.871 74.9261C153.452 74.9261 155.765 74.1806 157.762 72.6976C158.248 72.3321 158.69 71.9337 159.085 71.5062C162.758 74.1804 167.239 75.5359 172.408 75.5359C175.859 75.5359 179.066 74.9295 181.919 73.7417C185.097 72.4328 187.666 70.3634 189.552 67.5917C191.446 64.811 192.406 61.4875 192.406 57.713V41.4921C192.406 38.7712 191.439 36.312 189.627 34.3989C187.722 32.3665 185.215 31.2919 182.379 31.2919C179.513 31.2919 176.929 32.4537 175.106 34.5606C173.702 36.1809 172.862 38.1368 172.629 40.2697C172.511 40.2759 172.394 40.2881 172.278 40.3069C172.042 38.0656 171.136 36.0422 169.617 34.4013C167.732 32.3671 165.239 31.2919 162.407 31.2919C160.035 31.2919 157.895 32.0569 156.137 33.5283C154.374 32.0617 152.189 31.2919 149.764 31.2919C147.2 31.2919 144.708 32.3775 142.359 34.5183C142.29 34.5818 142.222 34.6468 142.156 34.7135L141.974 34.8984V27.639C141.974 23.7562 140.355 21.3578 139.019 20.0505C137.097 18.1496 134.677 17.1443 132.018 17.1443C129.408 17.1443 127.013 18.1352 125.088 20.0104L125.089 20.0108Z" fill="#FEFEFE"/>
<path d="M45.8914 47.7982C47.4541 47.7982 48.1387 48.4454 48.5662 49.016C49.362 50.0729 49.7488 51.4214 49.7488 53.1394C49.7488 54.2432 49.5657 55.2272 49.1786 56.1723C48.8822 56.917 48.4652 57.4702 47.8996 57.8666C47.3712 58.2387 46.7144 58.4196 45.8914 58.4196C44.769 58.4196 43.9941 58.0305 43.3054 57.1261C42.4639 56.0136 42.055 54.7093 42.055 53.1396C42.055 52.4023 42.1757 51.6816 42.4232 50.9375C42.6622 50.2216 42.9792 49.579 43.3659 49.0262C44.0365 48.1658 44.7943 47.7984 45.8916 47.7984L45.8914 47.7982ZM103.436 50.9365C103.675 50.221 103.991 49.5788 104.378 49.0256C105.049 48.1656 105.807 47.7982 106.904 47.7982C108.467 47.7982 109.152 48.4458 109.579 49.016C110.375 50.0725 110.762 51.421 110.762 53.1394C110.762 54.244 110.578 55.2278 110.191 56.1715C109.894 56.917 109.478 57.4704 108.913 57.8666C108.384 58.2387 107.727 58.4196 106.904 58.4196C105.781 58.4196 105.006 58.0305 104.317 57.1265C103.476 56.0136 103.067 54.7093 103.067 53.1396C103.067 52.4029 103.188 51.6826 103.436 50.9367L103.436 50.9365ZM149.599 51.2021L154.618 46.1905C154.722 46.0956 154.824 45.9985 154.922 45.8999V57.7127C154.922 57.8022 154.923 57.8919 154.923 57.9801L149.599 51.2019L149.599 51.2021ZM126.832 21.7904C125.342 23.2174 124.553 25.1377 124.553 27.3352L124.521 37.2756C124.17 36.7256 123.782 36.2911 123.421 35.9569C121.979 34.6076 120.179 33.8947 118.216 33.8947C116.744 33.8947 115.364 34.3112 114.114 35.1339C113.891 35.2806 113.678 35.4369 113.476 35.6024C112.843 35.1507 112.167 34.7523 111.449 34.4098C109.718 33.5893 107.583 33.1734 105.105 33.1734C103.577 33.1734 102.08 33.4374 100.65 33.9609C99.3505 34.4408 98.0528 35.1063 96.7657 35.9571C94.2626 37.6532 92.2702 39.8471 90.8481 42.4675C89.9355 44.1341 89.2476 45.8436 88.8041 47.5482C88.3612 49.2486 88.1366 51.1296 88.1366 53.1396C88.1366 54.6312 88.3061 56.1407 88.6404 57.6269C88.1498 57.5454 87.6349 57.5048 87.0949 57.5048H78.9586V31.0233C78.9586 28.569 78.3207 26.5923 77.0631 25.1485C76.1324 24.0804 74.4109 22.8061 71.4941 22.8061C69.4567 22.8061 67.6571 23.4507 66.1338 24.73C65.0066 25.6865 63.6627 27.5071 63.6627 30.7487V37.5294C63.2739 36.8571 62.8236 36.3411 62.4081 35.9567C60.9661 34.6078 59.1665 33.8949 57.2039 33.8949C55.7311 33.8949 54.3512 34.3118 53.1031 35.1333C52.8798 35.2804 52.667 35.4367 52.4645 35.6026C51.8308 35.1509 51.1544 34.7525 50.4365 34.41C48.7053 33.5895 46.5711 33.1736 44.093 33.1736C42.5647 33.1736 41.0683 33.4376 39.6375 33.9611C38.3402 34.4406 37.0426 35.1057 35.7535 35.9573C33.2508 37.653 31.258 39.8469 29.8362 42.4673C28.923 44.1335 28.2349 45.843 27.7914 47.5484C27.3493 49.247 27.1248 51.128 27.1248 53.1398C27.1248 54.6318 27.2943 56.1409 27.6281 57.6271C27.138 57.5456 26.6226 57.505 26.0831 57.505H17.9471V31.0235C17.9471 28.5696 17.3087 26.5933 16.0506 25.1487C15.1198 24.0802 13.3982 22.8063 10.4818 22.8063C8.44443 22.8063 6.64481 23.4509 5.12197 24.7302C3.9948 25.6863 2.65088 27.5069 2.65088 30.7489V64.7159C2.65088 66.5322 3.33875 68.2113 4.69487 69.7071C6.09703 71.2526 8.05577 72.0695 10.3601 72.0695H26.2354C28.046 72.0695 29.6785 71.4825 31.0861 70.3247C31.1087 70.3061 31.1305 70.2873 31.1521 70.2683C31.8952 69.6169 32.4816 68.874 32.8965 68.061C32.9031 68.0478 32.9097 68.035 32.9159 68.0218C32.9249 68.0038 32.9336 67.9857 32.9424 67.9675C33.7041 68.7659 34.5308 69.4884 35.4212 70.1326C38.0935 72.0651 41.2228 73.0454 44.7228 73.0454C47.8021 73.0454 50.4335 72.2551 52.583 70.6906C52.63 70.7314 52.678 70.7716 52.7261 70.8121C54.0193 71.889 55.6939 72.4354 57.7021 72.4354C57.8103 72.4354 57.9186 72.4288 58.0257 72.416C60.0931 72.1672 61.8105 71.2322 63.0013 69.6993C63.5406 68.997 63.9515 68.2497 64.2313 67.462C64.5715 68.2481 65.0645 68.9978 65.7069 69.7063C67.1087 71.2522 69.0676 72.0695 71.3722 72.0695H87.2476C89.0585 72.0695 90.6902 71.4825 92.0983 70.3247C92.1209 70.3065 92.143 70.2877 92.1652 70.2683C92.9073 69.6171 93.4941 68.8744 93.909 68.061C93.9154 68.0478 93.9222 68.035 93.928 68.0218C93.9374 68.0038 93.946 67.9855 93.955 67.9675C94.7165 68.7659 95.5433 69.4884 96.4335 70.1322C99.1051 72.0651 102.235 73.0454 105.735 73.0454C108.814 73.0454 111.446 72.2551 113.595 70.6906C113.642 70.731 113.69 70.771 113.738 70.8111C115.03 71.8886 116.705 72.4354 118.714 72.4354C118.822 72.4354 118.931 72.4288 119.038 72.416C121.107 72.1672 122.823 71.2318 124.012 69.7005C124.44 69.1443 124.787 68.5597 125.052 67.9491C125.415 68.8293 125.938 69.6074 126.617 70.2797C128.042 71.6899 129.833 72.4354 131.795 72.4354C133.772 72.4354 135.598 71.6795 137.084 70.2391C138.574 68.7805 139.361 66.7831 139.361 64.4619V61.7821L144.322 68.2539C144.333 68.2691 144.345 68.2841 144.357 68.2988C145.467 69.6873 146.344 70.5949 147.095 71.1407C148.026 71.8306 149.192 72.2599 150.563 72.4174C150.666 72.4294 150.769 72.4354 150.872 72.4354C152.906 72.4354 154.718 71.8552 156.267 70.7046C157.352 69.8908 158.12 68.8876 158.545 67.7416C159.056 68.2837 159.62 68.7895 160.237 69.2584C163.532 71.7713 167.627 73.0452 172.408 73.0452C175.529 73.0452 178.414 72.503 180.971 71.4385C183.691 70.3183 185.886 68.5521 187.494 66.1897C189.101 63.8303 189.915 60.9786 189.915 57.7133V41.4921C189.915 39.4206 189.185 37.5538 187.811 36.1026C186.388 34.5853 184.51 33.7832 182.379 33.7832C180.216 33.7832 178.352 34.6166 176.988 36.192C175.7 37.6795 175.047 39.4627 175.047 41.4921V56.2295C175.047 57.3627 174.694 57.7988 174.386 58.0524C173.779 58.5523 173.15 58.7857 172.409 58.7857C171.635 58.7857 171.018 58.5689 170.467 58.1038C170.315 57.9753 169.852 57.5846 169.852 56.2295V41.4921C169.852 39.3886 169.158 37.5728 167.789 36.0944C166.389 34.5827 164.528 33.7832 162.408 33.7832C160.285 33.7832 158.414 34.6 156.988 36.1546C156.669 36.5057 156.386 36.8729 156.141 37.2544C155.847 36.7933 155.494 36.3534 155.085 35.9389C153.69 34.5287 151.85 33.7832 149.765 33.7832C147.841 33.7832 145.914 34.6502 144.038 36.3598C144.001 36.3926 143.966 36.4268 143.932 36.4616L139.484 40.9791V27.6392C139.484 25.2176 138.734 23.2568 137.267 21.8214C135.822 20.3919 134.008 19.6357 132.019 19.6357C130.065 19.6357 128.265 20.3883 126.832 21.791L126.832 21.7904Z" fill="#2F4A97"/>
<path d="M167.143 56.229V41.4915C167.143 40.079 166.696 38.9002 165.802 37.9343C164.908 36.9686 163.769 36.4913 162.407 36.4913C161.036 36.4913 159.897 36.9895 158.993 37.9751C158.087 38.9714 157.63 40.1402 157.63 41.4915V57.7128C157.63 61.819 159.043 64.9491 161.878 67.104C164.705 69.2589 168.211 70.3362 172.408 70.3362C175.183 70.3362 177.694 69.8685 179.939 68.9335C182.186 68.0082 183.955 66.5755 185.255 64.6647C186.556 62.7538 187.207 60.4365 187.207 57.7126V41.4913C187.207 40.0992 186.749 38.9202 185.835 37.9547C184.92 36.9789 183.771 36.4911 182.379 36.4911C181.007 36.4911 179.888 36.9791 179.035 37.9645C178.181 38.9508 177.755 40.1194 177.755 41.4913V56.2288C177.755 57.9364 177.206 59.2374 176.108 60.1419C175.011 61.0463 173.77 61.4934 172.409 61.4934C170.996 61.4934 169.766 61.0563 168.719 60.1723C167.672 59.2879 167.144 57.9668 167.144 56.2288L167.143 56.229ZM106.904 61.1279C108.286 61.1279 109.475 60.7823 110.471 60.081C111.457 59.3902 112.209 58.4245 112.707 57.1744C113.215 55.9346 113.47 54.5929 113.47 53.1395C113.47 50.8323 112.89 48.9112 111.742 47.3868C110.593 45.8521 108.977 45.0898 106.904 45.0898C104.952 45.0898 103.387 45.8625 102.198 47.4174C101.649 48.1897 101.202 49.0741 100.867 50.0802C100.531 51.0865 100.359 52.1026 100.359 53.1395C100.359 55.3044 100.958 57.1744 102.157 58.7599C103.356 60.3352 104.932 61.1279 106.904 61.1279ZM105.735 70.3364C102.798 70.3364 100.226 69.5333 98.0211 67.9376C95.8156 66.3419 94.0774 64.1972 92.8072 61.5038C92.1973 60.1725 91.7098 58.8004 91.364 57.3772C91.0185 55.9648 90.8452 54.5416 90.8452 53.1393C90.8452 51.3503 91.0386 49.7141 91.425 48.2301C91.8113 46.7463 92.4113 45.2519 93.224 43.7681C94.4535 41.5017 96.1412 39.6517 98.2855 38.1987C99.362 37.4872 100.461 36.918 101.589 36.5013C102.727 36.0844 103.896 35.8813 105.105 35.8813C107.188 35.8813 108.917 36.2063 110.289 36.8568C111.65 37.5076 112.84 38.4122 113.825 39.581C114.202 38.646 114.801 37.9245 115.604 37.3957C116.407 36.8672 117.281 36.603 118.216 36.603C119.507 36.603 120.625 37.0501 121.57 37.9341C122.515 38.8085 122.983 40.0379 122.983 41.6034V64.8171C122.983 66.0061 122.606 67.0834 121.864 68.0493C121.123 69.0047 120.066 69.5635 118.714 69.7262C117.352 69.7262 116.264 69.3904 115.472 68.7299C114.679 68.0693 114.131 67.4086 113.836 66.7378C111.905 69.1366 109.211 70.336 105.735 70.336L105.735 70.3364ZM45.8915 61.1279C47.2741 61.1279 48.4631 60.7823 49.459 60.081C50.4448 59.3902 51.1971 58.4245 51.6951 57.1744C52.203 55.9346 52.4578 54.5929 52.4578 53.1395C52.4578 50.8323 51.8778 48.9112 50.7296 47.3868C49.5814 45.8521 47.9649 45.0898 45.8915 45.0898C43.9406 45.0898 42.3749 45.8625 41.1859 47.4174C40.6369 48.1897 40.1898 49.0741 39.8544 50.0802C39.519 51.0865 39.3463 52.1026 39.3463 53.1395C39.3463 55.3044 39.9461 57.1744 41.1455 58.7599C42.3443 60.3352 43.92 61.1279 45.8915 61.1279ZM44.7231 70.3364C41.7857 70.3364 39.2148 69.5333 37.0085 67.9376C34.8034 66.3419 33.0652 64.1972 31.7949 61.5038C31.1847 60.1725 30.6974 58.8004 30.3517 57.3772C30.0061 55.9648 29.8338 54.5416 29.8338 53.1393C29.8338 51.3503 30.0263 49.7141 30.4128 48.2301C30.799 46.7463 31.3984 45.2519 32.2116 43.7681C33.4416 41.5017 35.1286 39.6517 37.2732 38.1987C38.3506 37.4872 39.4485 36.918 40.5765 36.5013C41.7145 36.0844 42.8837 35.8813 44.0931 35.8813C46.1763 35.8813 47.9043 36.2063 49.2764 36.8568C50.6386 37.5076 51.8278 38.4122 52.8132 39.581C53.1893 38.646 53.7887 37.9245 54.5921 37.3957C55.3944 36.8672 56.2686 36.603 57.2036 36.603C58.4949 36.603 59.6125 37.0501 60.5581 37.9341C61.5036 38.8085 61.9703 40.0379 61.9703 41.6034V64.8171C61.9703 66.0061 61.5942 67.0834 60.8527 68.0493C60.1104 69.0047 59.0537 69.5635 57.702 69.7262C56.3403 69.7262 55.2527 69.3904 54.4598 68.7299C53.667 68.0693 53.1183 67.4086 52.8239 66.7378C50.8923 69.1366 48.1989 70.336 44.7233 70.336L44.7231 70.3364ZM30.4836 66.8298C30.7276 66.3319 30.8495 65.7423 30.8495 65.0716C30.8495 63.5976 30.4332 62.4188 29.5998 61.5344C28.766 60.6502 27.5974 60.2131 26.0832 60.2131H15.2388V31.0234C15.2388 29.2348 14.8315 27.8726 14.0084 26.9272C13.1852 25.9821 12.0064 25.5146 10.482 25.5146C9.08981 25.5146 7.89019 25.9415 6.8741 26.7951C5.86781 27.6489 5.35986 28.9702 5.35986 30.7486V64.7156C5.35986 65.8436 5.80697 66.9007 6.70098 67.8866C7.59579 68.8728 8.81542 69.3602 10.3603 69.3602H26.2353C27.4045 69.3602 28.4512 68.9845 29.3657 68.2322C29.864 67.7953 30.23 67.3276 30.4836 66.8298ZM66.3711 30.7486V64.7156C66.3711 65.8436 66.8186 66.9007 67.713 67.8866C68.6074 68.8728 69.8267 69.3602 71.3719 69.3602H87.2474C88.4162 69.3602 89.4633 68.9845 90.3781 68.2322C90.8758 67.7953 91.2417 67.3276 91.4957 66.8298C91.7396 66.3319 91.8619 65.7423 91.8619 65.0716C91.8619 63.5976 91.4448 62.4188 90.6115 61.5344C89.7781 60.6502 88.6091 60.2131 87.0948 60.2131H76.25V31.0234C76.25 29.2348 75.844 27.8726 75.0204 26.9272C74.1972 25.9821 73.0182 25.5146 71.494 25.5146C70.1012 25.5146 68.9022 25.9415 67.8857 26.7951C66.8795 27.6489 66.3711 28.9702 66.3711 30.7486ZM132.018 22.3435C133.309 22.3435 134.417 22.8112 135.362 23.7462C136.308 24.6711 136.775 25.9719 136.775 27.6385V47.5901L145.861 38.3614C147.234 37.1113 148.534 36.4913 149.764 36.4913C151.136 36.4913 152.264 36.9384 153.159 37.843C154.053 38.7477 154.5 39.7539 154.5 40.8615C154.388 42.173 153.799 43.2908 152.752 44.2258L145.983 50.9846L154.886 62.3167C155.78 63.2726 156.228 64.3293 156.228 65.4981C156.228 66.728 155.699 67.7447 154.643 68.537C153.575 69.3299 152.325 69.7264 150.872 69.7264C149.987 69.6247 149.255 69.3704 148.706 68.9639C148.148 68.5574 147.406 67.7747 146.471 66.6061L136.806 53.9929H136.653V64.4612C136.653 66.0673 136.165 67.348 135.189 68.3032C134.213 69.2487 133.085 69.7262 131.795 69.7262C130.544 69.7262 129.447 69.2687 128.522 68.3539C127.597 67.4392 127.14 66.1792 127.14 64.5731L127.262 27.3437C127.262 25.8701 127.739 24.6706 128.705 23.746C129.66 22.8108 130.769 22.3433 132.018 22.3433V22.3435Z" fill="#FEFEFE"/>
</svg>
