<svg width="20" height="29" viewBox="0 0 20 29" fill="none" xmlns="http://www.w3.org/2000/svg">
<path d="M8.97229 28.4149C1.40469 16.4842 0 15.2597 0 10.875C0 4.86888 4.47713 0 10 0C15.5229 0 20 4.86888 20 10.875C20 15.2597 18.5953 16.4842 11.0277 28.4149C10.5311 29.1951 9.46885 29.195 8.97229 28.4149ZM10 15.4062C12.3012 15.4062 14.1667 13.3775 14.1667 10.875C14.1667 8.37245 12.3012 6.34375 10 6.34375C7.6988 6.34375 5.83333 8.37245 5.83333 10.875C5.83333 13.3775 7.6988 15.4062 10 15.4062Z" fill="white"/>
</svg>
