<svg width="265" height="40" viewBox="0 0 265 40" fill="none" xmlns="http://www.w3.org/2000/svg">
<path fill-rule="evenodd" clip-rule="evenodd" d="M34.7524 21.146C36.145 21.6902 37.3988 22.5079 38.3951 23.6903C39.8269 25.3893 40.3732 27.4782 40.3732 29.6715C40.3732 32.6489 39.2981 35.1583 36.871 36.9286C34.1292 38.9285 30.3067 39.3998 27.0052 39.3998H14.5742V34.9328H26.9574C28.9986 34.9328 31.5824 34.6946 33.3291 33.5302C34.781 32.5624 35.2836 31.0846 35.2836 29.3843C35.2836 28.3396 35.0767 27.3037 34.4753 26.4316C32.948 24.2163 29.396 23.8835 26.9574 23.8835H14.5742V19.4168H25.808C27.74 19.4168 30.0145 19.1475 31.6359 18.0019C32.9747 17.0561 33.5115 15.7269 33.5115 14.1074C33.5115 12.4884 32.9747 11.1595 31.6359 10.2132C30.0146 9.06809 27.7402 8.79849 25.808 8.79849H16.6671L14.5742 4.38305V4.33185H26.0472C29.1799 4.33185 32.602 4.84183 35.1947 6.73066C37.5383 8.43857 38.6011 10.8458 38.6011 13.7247C38.6011 15.5791 38.1719 17.3566 37.0953 18.8866C36.45 19.8037 35.6598 20.5514 34.7525 21.146L34.7524 21.146Z" fill="white"/>
<path fill-rule="evenodd" clip-rule="evenodd" d="M12.4297 39.4V11.9445L10.9407 11.1335L9.45166 11.9445V39.4H12.4297Z" fill="url(#paint0_linear_1105_535)"/>
<path fill-rule="evenodd" clip-rule="evenodd" d="M7.81963 39.3999V16.1686H4.84131V39.3999H7.81963Z" fill="url(#paint1_linear_1105_535)"/>
<path fill-rule="evenodd" clip-rule="evenodd" d="M3.2096 39.4001V23.6013H0.231445V39.4001H3.2096Z" fill="url(#paint2_linear_1105_535)"/>
<path fill-rule="evenodd" clip-rule="evenodd" d="M10.9442 0.546753H10.9369L5.36328 12.3068L10.9406 9.26898L16.5178 12.3068L10.9442 0.546753Z" fill="url(#paint3_linear_1105_535)"/>
<path d="M63.8947 17.3671C64.731 17.6393 65.3792 18.0779 65.8601 18.6843C66.3411 19.3117 66.571 20.0858 66.571 20.9847C66.571 22.2601 66.0692 23.243 65.0865 23.9329C64.0829 24.6229 62.6193 24.9784 60.7164 24.9784H53.147V10.3416H60.2983C62.0755 10.3416 63.4556 10.6761 64.4173 11.3661C65.3583 12.0561 65.8391 12.9761 65.8391 14.147C65.8391 14.8583 65.6719 15.4852 65.3373 16.0497C64.9817 16.6142 64.501 17.0538 63.8946 17.367L63.8947 17.3671ZM56.5133 12.8925V16.3425H59.8802C60.7164 16.3425 61.3438 16.1966 61.7828 15.9035C62.222 15.6108 62.431 15.1716 62.431 14.6071C62.431 14.0426 62.222 13.6035 61.7828 13.3108C61.3438 13.039 60.7164 12.8926 59.8802 12.8926H56.5133V12.8925ZM60.4656 22.4275C61.3647 22.4275 62.0337 22.2811 62.4938 21.988C62.9328 21.6957 63.1628 21.2357 63.1628 20.6288C63.1628 19.4161 62.2632 18.8098 60.4655 18.8098H56.5132V22.4275H60.4655H60.4656ZM75.6464 25.2294C73.5555 25.2294 71.9241 24.6439 70.7746 23.4939C69.6033 22.3434 69.0178 20.6921 69.0178 18.5384V10.3416H72.4051V18.413C72.4051 21.0266 73.4923 22.3433 75.6673 22.3433C76.7337 22.3433 77.5278 22.0301 78.0928 21.3815C78.6573 20.7542 78.9291 19.7715 78.9291 18.4129V10.3415H82.2746V18.5383C82.2746 20.6919 81.6891 22.3432 80.5392 23.4938C79.3682 24.6438 77.7373 25.2293 75.6464 25.2293V25.2294ZM94.9464 24.9785L92.1237 20.9007H91.9563H89.0078V24.9785H85.6205V10.3417H91.9563C93.2527 10.3417 94.3819 10.5508 95.3436 10.9899C96.2845 11.429 97.0164 12.0354 97.5391 12.83C98.0618 13.6246 98.3126 14.5654 98.3126 15.6527C98.3126 16.74 98.0619 17.6813 97.5391 18.4545C97.0164 19.2495 96.2636 19.8559 95.3018 20.2736L98.5844 24.9786H94.9464V24.9785ZM94.8835 15.6526C94.8835 14.8371 94.6117 14.189 94.0891 13.7498C93.5664 13.3108 92.7922 13.1017 91.7682 13.1017H89.0078V18.2035H91.7682C92.7922 18.2035 93.5664 17.9735 94.0891 17.5349C94.6116 17.0954 94.8835 16.4681 94.8835 15.6527V15.6526ZM114.413 10.3417V24.9785H111.026V18.9775H104.376V24.9785H100.989V10.3417H104.376V16.1125H111.026V10.3417H114.413ZM127.523 21.8421H120.728L119.431 24.9785H115.96L122.484 10.3417H125.83L132.375 24.9785H128.82L127.523 21.8421ZM126.457 19.2703L124.136 13.6662L121.815 19.2703H126.457H126.457ZM147.325 10.3417V24.9785H144.544L137.247 16.0916V24.9785H133.901V10.3417H136.703L143.979 19.2285V10.3417H147.325ZM163.718 25.2294C162.234 25.2294 160.875 24.8947 159.683 24.2466C158.47 23.5984 157.529 22.6993 156.839 21.5494C156.149 20.3989 155.793 19.1029 155.793 17.6602C155.793 16.2171 156.149 14.8998 156.839 13.7497C157.529 12.5998 158.47 11.7007 159.683 11.0525C160.875 10.4042 162.234 10.0906 163.739 10.0906C165.015 10.0906 166.165 10.3205 167.189 10.7597C168.214 11.1987 169.071 11.8469 169.761 12.6832L167.587 14.6905C166.604 13.5405 165.37 12.976 163.907 12.976C163.008 12.976 162.192 13.1642 161.481 13.5614C160.77 13.9587 160.226 14.5233 159.829 15.2342C159.432 15.9455 159.223 16.7606 159.223 17.6601C159.223 18.5588 159.432 19.3746 159.829 20.0857C160.226 20.7965 160.77 21.3402 161.481 21.737C162.192 22.1347 163.008 22.3433 163.907 22.3433C165.37 22.3433 166.604 21.7584 167.587 20.6084L169.761 22.6157C169.071 23.4729 168.193 24.1211 167.168 24.5602C166.144 24.9993 164.994 25.2293 163.718 25.2293V25.2294Z" fill="white"/>
<path d="M178.814 25.2292C177.287 25.2292 175.929 24.8946 174.716 24.2465C173.483 23.5983 172.541 22.6784 171.851 21.5284C171.161 20.3784 170.806 19.1028 170.806 17.6601C170.806 16.217 171.161 14.9205 171.851 13.7706C172.541 12.6206 173.483 11.7215 174.716 11.0733C175.929 10.425 177.288 10.0906 178.814 10.0906C180.341 10.0906 181.7 10.4251 182.912 11.0733C184.125 11.7215 185.087 12.6206 185.777 13.7706C186.467 14.9205 186.823 16.217 186.823 17.6601C186.823 19.1028 186.467 20.3784 185.777 21.5284C185.087 22.6783 184.125 23.5983 182.912 24.2465C181.7 24.8947 180.341 25.2292 178.814 25.2292ZM178.814 22.3432C179.672 22.3432 180.466 22.1346 181.156 21.7369C181.846 21.3401 182.411 20.7964 182.808 20.0856C183.205 19.3746 183.393 18.5587 183.393 17.66C183.393 16.7605 183.205 15.9455 182.808 15.2341C182.411 14.5232 181.846 13.9587 181.156 13.5613C180.466 13.1641 179.672 12.9758 178.814 12.9758C177.957 12.9758 177.163 13.1641 176.472 13.5613C175.783 13.9586 175.238 14.5232 174.841 15.2341C174.444 15.9454 174.235 16.7605 174.235 17.66C174.235 18.5587 174.444 19.3745 174.841 20.0856C175.238 20.7964 175.783 21.3401 176.472 21.7369C177.163 22.1346 177.957 22.3432 178.814 22.3432ZM202.797 10.3415V24.9783H200.017L192.719 16.0914V24.9783H189.373V10.3415H192.175L199.452 19.2283V10.3415H202.797ZM211.078 25.2291C209.927 25.2291 208.798 25.0827 207.732 24.7482C206.645 24.4345 205.766 24.0372 205.118 23.5355L206.268 20.9845C206.896 21.4445 207.649 21.8209 208.506 22.0928C209.363 22.3646 210.241 22.5109 211.098 22.5109C212.061 22.5109 212.772 22.3646 213.232 22.0719C213.691 21.8001 213.921 21.4236 213.921 20.9428C213.921 20.5872 213.796 20.2941 213.524 20.0646C213.253 19.8347 212.897 19.6669 212.478 19.521C212.04 19.3746 211.475 19.2283 210.743 19.0606C209.635 18.7888 208.715 18.5383 208.004 18.2664C207.293 17.9941 206.687 17.576 206.185 16.9905C205.662 16.405 205.411 15.6315 205.411 14.6487C205.411 13.7915 205.641 13.0179 206.101 12.3279C206.561 11.6379 207.251 11.0942 208.192 10.6969C209.112 10.2997 210.241 10.0906 211.58 10.0906C212.521 10.0906 213.42 10.1952 214.319 10.4251C215.218 10.6551 215.992 10.9687 216.661 11.3871L215.615 13.9589C214.256 13.1852 212.918 12.8089 211.559 12.8089C210.617 12.8089 209.906 12.9552 209.468 13.2689C209.008 13.5826 208.777 13.9798 208.777 14.4817C208.777 14.984 209.049 15.3599 209.572 15.5904C210.095 15.8413 210.889 16.0917 211.956 16.3221C213.064 16.5935 213.984 16.8444 214.695 17.1163C215.406 17.3881 216.012 17.8062 216.535 18.3714C217.037 18.9354 217.288 19.7095 217.288 20.6922C217.288 21.5286 217.058 22.2812 216.598 22.9714C216.117 23.6613 215.427 24.2259 214.486 24.6232C213.545 25.0204 212.416 25.2296 211.078 25.2296L211.078 25.2291ZM226.112 25.2291C224.021 25.2291 222.39 24.6437 221.24 23.4937C220.069 22.3432 219.483 20.6919 219.483 18.5382V10.3414H222.87V18.4128C222.87 21.0264 223.958 22.3431 226.133 22.3431C227.199 22.3431 227.993 22.0299 228.558 21.3813C229.123 20.754 229.395 19.7713 229.395 18.4127V10.3413H232.74V18.5381C232.74 20.6917 232.154 22.343 231.004 23.4936C229.834 24.6436 228.203 25.229 226.112 25.229V25.2291ZM236.086 10.3415H239.473V22.2183H246.813V24.9783H236.086V10.3415Z" fill="white"/>
<path d="M250.388 13.1015H245.704V10.3416H258.459V13.1015H253.775V24.9783H250.388V13.1015H250.388Z" fill="white"/>
<path d="M63.9617 31.1394L61.5033 38.4321H60.6906L58.5546 32.2127L56.4084 38.4321H55.6063L53.1475 31.1394H53.9397L56.0441 37.4112L58.2214 31.1394H58.9402L61.086 37.4424L63.222 31.1394H63.9617Z" fill="white"/>
<path d="M72.435 37.7652V38.4321H67.2783V31.1394H72.2788V31.8062H68.0492V34.4004H71.8208V35.0565H68.0492V37.7654H72.435V37.7652Z" fill="white"/>
<path d="M88.3713 31.1394V38.4321H87.6316V32.5979L84.7665 37.505H84.4022L81.5371 32.629V38.4321H80.7974V31.1394H81.433L84.6001 36.5461L87.736 31.1394H88.3713Z" fill="white"/>
<path d="M95.8446 38.4948C95.1258 38.4948 94.4692 38.328 93.8861 38.0046C93.2923 37.682 92.8337 37.2444 92.5107 36.6817C92.1775 36.1194 92.0107 35.4838 92.0107 34.786C92.0107 34.0876 92.1775 33.4525 92.5107 32.8898C92.8337 32.3271 93.2923 31.8792 93.8861 31.5562C94.4692 31.2333 95.1258 31.0767 95.8446 31.0767C96.5634 31.0767 97.2199 31.2333 97.8031 31.5562C98.3764 31.8792 98.8346 32.3168 99.1678 32.8791C99.5014 33.4525 99.6682 34.0876 99.6682 34.786C99.6682 35.4838 99.5014 36.1194 99.1678 36.6817C98.8346 37.2545 98.3764 37.6923 97.8031 38.0152C97.2199 38.3382 96.5634 38.4948 95.8446 38.4948ZM95.8446 37.8071C96.4175 37.8071 96.9384 37.6719 97.4071 37.4113C97.876 37.1506 98.2407 36.7965 98.5009 36.3277C98.7616 35.8691 98.8967 35.3585 98.8967 34.786C98.8967 34.2131 98.7616 33.7024 98.5009 33.2335C98.2408 32.775 97.876 32.4103 97.4071 32.1499C96.9383 31.8893 96.4175 31.7643 95.8446 31.7643C95.2717 31.7643 94.7508 31.8893 94.282 32.1499C93.8131 32.4102 93.4382 32.775 93.1775 33.2335C92.9066 33.7024 92.7709 34.213 92.7709 34.786C92.7709 35.3584 92.9066 35.8691 93.1775 36.3277C93.4381 36.7965 93.8131 37.1505 94.282 37.4113C94.7509 37.6719 95.2717 37.8071 95.8446 37.8071Z" fill="white"/>
<path d="M109.152 31.1394L105.923 38.4321H105.162L101.933 31.1394H102.766L105.558 37.4734L108.371 31.1394H109.152Z" fill="white"/>
<path d="M117.271 37.7652V38.4321H112.115V31.1394H117.115V31.8062H112.886V34.4004H116.657V35.0565H112.886V37.7654H117.271V37.7652Z" fill="white"/>
<path d="M128.134 35.9109V38.4321H127.374V35.9109L124.457 31.1394H125.28L127.78 35.2338L130.28 31.1394H131.051L128.134 35.9109Z" fill="white"/>
<path d="M137.035 38.4948C136.316 38.4948 135.659 38.328 135.076 38.0046C134.482 37.682 134.024 37.2444 133.701 36.6817C133.367 36.1194 133.201 35.4838 133.201 34.786C133.201 34.0876 133.367 33.4525 133.701 32.8898C134.024 32.3271 134.482 31.8792 135.076 31.5562C135.659 31.2333 136.316 31.0767 137.035 31.0767C137.753 31.0767 138.41 31.2333 138.993 31.5562C139.566 31.8792 140.025 32.3168 140.358 32.8791C140.691 33.4525 140.858 34.0876 140.858 34.786C140.858 35.4838 140.691 36.1194 140.358 36.6817C140.025 37.2545 139.566 37.6923 138.993 38.0152C138.41 38.3382 137.753 38.4948 137.035 38.4948ZM137.035 37.8071C137.608 37.8071 138.128 37.6719 138.597 37.4113C139.066 37.1506 139.431 36.7965 139.691 36.3277C139.952 35.8691 140.087 35.3585 140.087 34.786C140.087 34.2131 139.952 33.7024 139.691 33.2335C139.431 32.775 139.066 32.4103 138.597 32.1499C138.128 31.8893 137.608 31.7643 137.035 31.7643C136.462 31.7643 135.941 31.8893 135.472 32.1499C135.003 32.4102 134.628 32.775 134.368 33.2335C134.097 33.7024 133.961 34.213 133.961 34.786C133.961 35.3584 134.097 35.8691 134.368 36.3277C134.628 36.7965 135.003 37.1505 135.472 37.4113C135.941 37.6719 136.462 37.8071 137.035 37.8071Z" fill="white"/>
<path d="M147.436 38.4948C146.488 38.4948 145.759 38.2239 145.228 37.682C144.696 37.1403 144.436 36.3486 144.436 35.317V31.1394H145.207V35.2859C145.207 36.1297 145.394 36.7653 145.78 37.1816C146.165 37.5984 146.717 37.807 147.436 37.807C148.165 37.807 148.717 37.5984 149.103 37.1816C149.489 36.7653 149.676 36.1297 149.676 35.2859V31.1394H150.426V35.317C150.426 36.3486 150.166 37.1403 149.645 37.682C149.114 38.2238 148.384 38.4948 147.436 38.4948Z" fill="white"/>
<path d="M159.638 38.4321L157.972 36.088C157.784 36.1089 157.586 36.1195 157.388 36.1195H155.43V38.4321H154.659V31.1394H157.388C158.316 31.1394 159.045 31.3583 159.576 31.8062C160.108 32.2541 160.368 32.8587 160.368 33.6398C160.368 34.2131 160.222 34.6922 159.941 35.0773C159.649 35.4736 159.232 35.7548 158.701 35.9318L160.483 38.4321H159.638ZM157.368 35.4629C158.086 35.4629 158.638 35.3068 159.024 34.9834C159.409 34.661 159.597 34.213 159.597 33.6397C159.597 33.0459 159.409 32.5979 159.024 32.2749C158.639 31.9623 158.086 31.8061 157.368 31.8061H155.43V35.4628H157.368V35.4629Z" fill="white"/>
<path d="M173.336 34.6712C173.816 34.7752 174.191 34.9834 174.451 35.2859C174.711 35.5982 174.837 35.994 174.837 36.4842C174.837 37.1092 174.607 37.5883 174.149 37.9214C173.68 38.2653 173.003 38.4321 172.097 38.4321H168.742V31.1394H171.888C172.701 31.1394 173.336 31.3062 173.784 31.6292C174.232 31.9522 174.451 32.4209 174.451 33.0147C174.451 33.4209 174.357 33.7545 174.159 34.0356C173.962 34.3172 173.68 34.5356 173.336 34.6713L173.336 34.6712ZM169.513 31.7751V34.4212H171.836C172.43 34.4212 172.878 34.3065 173.201 34.0773C173.524 33.8584 173.68 33.5249 173.68 33.0984C173.68 32.671 173.524 32.3373 173.201 32.1087C172.878 31.8893 172.43 31.7751 171.836 31.7751H169.513ZM172.087 37.7964C172.743 37.7964 173.232 37.682 173.566 37.4632C173.899 37.2443 174.066 36.8903 174.066 36.4214C174.066 35.5149 173.41 35.0563 172.087 35.0563H169.513V37.7964H172.087Z" fill="white"/>
<path d="M181.445 38.4948C180.497 38.4948 179.768 38.2239 179.237 37.682C178.705 37.1403 178.444 36.3486 178.444 35.317V31.1394H179.216V35.2859C179.216 36.1297 179.403 36.7653 179.789 37.1816C180.174 37.5984 180.726 37.807 181.445 37.807C182.174 37.807 182.726 37.5984 183.112 37.1816C183.497 36.7653 183.685 36.1297 183.685 35.2859V31.1394H184.435V35.317C184.435 36.3486 184.174 37.1403 183.653 37.682C183.122 38.2238 182.393 38.4948 181.445 38.4948Z" fill="white"/>
<path d="M190.678 38.4947C190.136 38.4947 189.615 38.4111 189.126 38.234C188.626 38.057 188.24 37.8275 187.969 37.5464L188.272 36.9526C188.532 37.2132 188.886 37.4321 189.324 37.5883C189.761 37.755 190.209 37.8382 190.678 37.8382C191.335 37.8382 191.824 37.7132 192.147 37.4734C192.47 37.2342 192.637 36.9321 192.637 36.5459C192.637 36.2546 192.554 36.0256 192.377 35.8485C192.199 35.6715 191.981 35.5358 191.72 35.4419C191.46 35.3482 191.106 35.2542 190.647 35.14C190.095 35.0043 189.657 34.8691 189.334 34.7335C189.011 34.6085 188.73 34.4105 188.501 34.1503C188.262 33.8897 188.147 33.5249 188.147 33.0769C188.147 32.7121 188.24 32.3689 188.439 32.0664C188.637 31.7643 188.928 31.5247 189.334 31.3476C189.741 31.1705 190.24 31.0767 190.835 31.0767C191.251 31.0767 191.658 31.1293 192.064 31.2435C192.46 31.3583 192.803 31.5247 193.095 31.7231L192.835 32.3373C192.533 32.1394 192.199 31.9832 191.856 31.8792C191.512 31.7853 191.168 31.7337 190.835 31.7337C190.199 31.7337 189.72 31.8583 189.397 32.0981C189.074 32.348 188.907 32.671 188.907 33.0566C188.907 33.348 189.001 33.5775 189.178 33.7545C189.355 33.9316 189.574 34.0668 189.845 34.1606C190.105 34.2545 190.47 34.3587 190.918 34.4733C191.449 34.6086 191.887 34.7336 192.22 34.8589C192.543 34.9942 192.824 35.1814 193.053 35.442C193.283 35.7027 193.397 36.0568 193.397 36.5047C193.397 36.8696 193.304 37.2026 193.106 37.5051C192.908 37.8071 192.595 38.0468 192.189 38.2239C191.783 38.4009 191.272 38.4948 190.678 38.4948L190.678 38.4947Z" fill="white"/>
<path d="M196.984 31.1394H197.755V38.4321H196.984V31.1394Z" fill="white"/>
<path d="M208.136 31.1394V38.4321H207.501L202.812 32.5148V38.4321H202.042V31.1394H202.677L207.375 37.0567V31.1394H208.136Z" fill="white"/>
<path d="M217.579 37.7652V38.4321H212.422V31.1394H217.422V31.8062H213.193V34.4004H216.964V35.0565H213.193V37.7654H217.579V37.7652Z" fill="white"/>
<path d="M223.311 38.4947C222.77 38.4947 222.249 38.4111 221.76 38.234C221.259 38.057 220.873 37.8275 220.603 37.5464L220.905 36.9526C221.166 37.2132 221.52 37.4321 221.957 37.5883C222.395 37.755 222.843 37.8382 223.311 37.8382C223.968 37.8382 224.458 37.7132 224.781 37.4734C225.104 37.2342 225.27 36.9321 225.27 36.5459C225.27 36.2546 225.187 36.0256 225.01 35.8485C224.833 35.6715 224.614 35.5358 224.353 35.4419C224.093 35.3482 223.739 35.2542 223.28 35.14C222.728 35.0043 222.291 34.8691 221.968 34.7335C221.645 34.6085 221.364 34.4105 221.134 34.1503C220.895 33.8897 220.78 33.5249 220.78 33.0769C220.78 32.7121 220.873 32.3689 221.072 32.0664C221.27 31.7643 221.562 31.5247 221.968 31.3476C222.374 31.1705 222.874 31.0767 223.468 31.0767C223.884 31.0767 224.291 31.1293 224.697 31.2435C225.093 31.3583 225.437 31.5247 225.729 31.7231L225.468 32.3373C225.166 32.1394 224.833 31.9832 224.489 31.8792C224.145 31.7853 223.801 31.7337 223.468 31.7337C222.833 31.7337 222.354 31.8583 222.031 32.0981C221.707 32.348 221.541 32.671 221.541 33.0566C221.541 33.348 221.635 33.5775 221.812 33.7545C221.989 33.9316 222.208 34.0668 222.479 34.1606C222.739 34.2545 223.103 34.3587 223.551 34.4733C224.082 34.6086 224.52 34.7336 224.854 34.8589C225.177 34.9942 225.458 35.1814 225.687 35.442C225.916 35.7027 226.031 36.0568 226.031 36.5047C226.031 36.8696 225.937 37.2026 225.739 37.5051C225.541 37.8071 225.229 38.0468 224.823 38.2239C224.416 38.4009 223.905 38.4948 223.312 38.4948L223.311 38.4947Z" fill="white"/>
<path d="M231.629 38.4947C231.088 38.4947 230.567 38.4111 230.077 38.234C229.577 38.057 229.191 37.8275 228.92 37.5464L229.223 36.9526C229.484 37.2132 229.838 37.4321 230.275 37.5883C230.713 37.755 231.16 37.8382 231.629 37.8382C232.286 37.8382 232.776 37.7132 233.099 37.4734C233.421 37.2342 233.588 36.9321 233.588 36.5459C233.588 36.2546 233.505 36.0256 233.328 35.8485C233.151 35.6715 232.932 35.5358 232.671 35.4419C232.411 35.3482 232.057 35.2542 231.598 35.14C231.046 35.0043 230.609 34.8691 230.286 34.7335C229.963 34.6085 229.682 34.4105 229.452 34.1503C229.213 33.8897 229.098 33.5249 229.098 33.0769C229.098 32.7121 229.191 32.3689 229.39 32.0664C229.588 31.7643 229.879 31.5247 230.286 31.3476C230.692 31.1705 231.192 31.0767 231.786 31.0767C232.202 31.0767 232.609 31.1293 233.015 31.2435C233.411 31.3583 233.755 31.5247 234.046 31.7231L233.786 32.3373C233.484 32.1394 233.151 31.9832 232.807 31.8792C232.463 31.7853 232.119 31.7337 231.786 31.7337C231.15 31.7337 230.671 31.8583 230.348 32.0981C230.025 32.348 229.859 32.671 229.859 33.0566C229.859 33.348 229.953 33.5775 230.13 33.7545C230.307 33.9316 230.525 34.0668 230.796 34.1606C231.057 34.2545 231.421 34.3587 231.869 34.4733C232.4 34.6086 232.838 34.7336 233.172 34.8589C233.495 34.9942 233.776 35.1814 234.005 35.442C234.234 35.7027 234.349 36.0568 234.349 36.5047C234.349 36.8696 234.255 37.2026 234.057 37.5051C233.859 37.8071 233.547 38.0468 233.141 38.2239C232.734 38.4009 232.223 38.4948 231.629 38.4948L231.629 38.4947Z" fill="white"/>
<path d="M245.513 38.4948C244.565 38.4948 243.836 38.2239 243.305 37.682C242.773 37.1403 242.513 36.3486 242.513 35.317V31.1394H243.284V35.2859C243.284 36.1297 243.471 36.7653 243.857 37.1816C244.242 37.5984 244.794 37.807 245.513 37.807C246.242 37.807 246.794 37.5984 247.18 37.1816C247.566 36.7653 247.753 36.1297 247.753 35.2859V31.1394H248.503V35.317C248.503 36.3486 248.243 37.1403 247.722 37.682C247.191 38.2238 246.461 38.4948 245.513 38.4948Z" fill="white"/>
<path d="M255.465 31.1394C256.393 31.1394 257.122 31.3583 257.653 31.8062C258.185 32.2541 258.445 32.8587 258.445 33.6398C258.445 34.4213 258.185 35.0258 257.653 35.463C257.122 35.911 256.393 36.1299 255.465 36.1299H253.507V38.4322H252.736V31.1395H255.465V31.1394ZM255.445 35.4523C256.164 35.4523 256.716 35.2966 257.101 34.9731C257.486 34.661 257.674 34.213 257.674 33.6397C257.674 33.0459 257.486 32.5979 257.101 32.2749C256.716 31.9623 256.164 31.8061 255.445 31.8061H253.507V35.4522H255.445V35.4523Z" fill="white"/>
<path fill-rule="evenodd" clip-rule="evenodd" d="M262.144 9.89456H262.163H262.182C262.578 9.89127 262.958 9.7886 263.321 9.58645C263.692 9.38291 263.978 9.09486 264.182 8.72357C264.385 8.35971 264.486 7.97972 264.49 7.58486V7.56617V7.54717C264.486 7.14986 264.382 6.76605 264.178 6.39816C263.971 6.02549 263.68 5.73733 263.309 5.53762C262.935 5.33642 262.554 5.23608 262.163 5.23608C261.772 5.23608 261.391 5.33642 261.017 5.53762C260.646 5.73744 260.354 6.02549 260.145 6.39816C259.937 6.7721 259.833 7.16197 259.833 7.56617C259.833 7.96762 259.935 8.3543 260.141 8.72357C260.346 9.09486 260.635 9.38302 261.003 9.58645C261.368 9.7886 261.747 9.89127 262.144 9.89456ZM262.163 5.62213C261.836 5.62213 261.516 5.70622 261.207 5.87344C260.897 6.0412 260.655 6.28137 260.48 6.5932C260.306 6.90503 260.218 7.22929 260.218 7.56607C260.218 7.90211 260.304 8.2236 260.475 8.53108C260.648 8.83824 260.887 9.07893 261.196 9.25041C261.505 9.42188 261.828 9.5082 262.163 9.5082C262.499 9.5082 262.82 9.42188 263.129 9.25041C263.438 9.07893 263.678 8.83824 263.849 8.53108C264.02 8.22349 264.105 7.902 264.105 7.56607C264.105 7.22918 264.017 6.90493 263.843 6.5932C263.669 6.28137 263.427 6.0412 263.116 5.87344C262.806 5.70622 262.488 5.62213 262.163 5.62213H262.163ZM262.91 7.94118L263.289 8.055C263.227 8.31183 263.096 8.51866 262.896 8.67155C262.695 8.8254 262.452 8.90248 262.167 8.90248C261.804 8.90248 261.51 8.78536 261.284 8.55019C261.057 8.31512 260.944 7.99076 260.944 7.57499C260.944 7.30318 260.996 7.06705 261.099 6.8668C261.202 6.66561 261.349 6.51463 261.539 6.41291C261.73 6.31067 261.948 6.26045 262.192 6.26045C262.466 6.26045 262.693 6.32511 262.874 6.45708C263.056 6.58853 263.178 6.76743 263.245 6.99368L262.878 7.08754C262.817 6.93327 262.726 6.81382 262.604 6.73196C262.483 6.64883 262.342 6.60753 262.179 6.60753C261.942 6.60753 261.745 6.69151 261.593 6.86022C261.438 7.02893 261.362 7.27144 261.362 7.5855C261.362 7.90009 261.435 8.13792 261.58 8.2992C261.725 8.46047 261.912 8.5417 262.143 8.5417C262.329 8.5417 262.492 8.48776 262.632 8.37957C262.773 8.27181 262.865 8.12592 262.91 7.94096V7.94118Z" fill="white"/>
<defs>
<linearGradient id="paint0_linear_1105_535" x1="10.9407" y1="11.1335" x2="10.9407" y2="39.4" gradientUnits="userSpaceOnUse">
<stop stop-color="#FFF792"/>
<stop offset="0.309804" stop-color="#FCD863"/>
<stop offset="0.670588" stop-color="#E2B13C"/>
<stop offset="1" stop-color="#E8C44D"/>
</linearGradient>
<linearGradient id="paint1_linear_1105_535" x1="6.33044" y1="16.1686" x2="6.33044" y2="39.3999" gradientUnits="userSpaceOnUse">
<stop stop-color="#FFF792"/>
<stop offset="0.309804" stop-color="#FCD863"/>
<stop offset="0.670588" stop-color="#E2B13C"/>
<stop offset="1" stop-color="#E8C44D"/>
</linearGradient>
<linearGradient id="paint2_linear_1105_535" x1="1.7205" y1="23.6013" x2="1.7205" y2="39.4001" gradientUnits="userSpaceOnUse">
<stop stop-color="#FFF792"/>
<stop offset="0.309804" stop-color="#FCD863"/>
<stop offset="0.670588" stop-color="#E2B13C"/>
<stop offset="1" stop-color="#E8C44D"/>
</linearGradient>
<linearGradient id="paint3_linear_1105_535" x1="10.9404" y1="0.546753" x2="10.9404" y2="12.3068" gradientUnits="userSpaceOnUse">
<stop stop-color="#FFF792"/>
<stop offset="0.309804" stop-color="#FCD863"/>
<stop offset="0.670588" stop-color="#E2B13C"/>
<stop offset="1" stop-color="#E8C44D"/>
</linearGradient>
</defs>
</svg>
