<svg width="269" height="41" viewBox="0 0 269 41" fill="none" xmlns="http://www.w3.org/2000/svg">
<path fill-rule="evenodd" clip-rule="evenodd" d="M35.1398 21.6937C36.5574 22.2477 37.8338 23.0801 38.848 24.2837C40.3054 26.0132 40.8615 28.1395 40.8615 30.3723C40.8615 33.403 39.7671 35.9575 37.2965 37.7595C34.5055 39.7953 30.6144 40.2751 27.2537 40.2751H14.5996V35.728H27.205C29.2829 35.728 31.913 35.4855 33.6911 34.3001C35.169 33.315 35.6806 31.8107 35.6806 30.0798C35.6806 29.0164 35.47 27.9619 34.8578 27.0742C33.3031 24.8191 29.6874 24.4804 27.205 24.4804H14.5996V19.9336H26.0349C28.0016 19.9336 30.317 19.6594 31.9674 18.4932C33.3302 17.5304 33.8767 16.1774 33.8767 14.5289C33.8767 12.8808 33.3302 11.5281 31.9674 10.5648C30.317 9.39911 28.0019 9.12468 26.0349 9.12468H16.73L14.5996 4.63V4.57788H26.2784C29.4674 4.57788 32.9509 5.09701 35.5901 7.01974C37.9758 8.75829 39.0577 11.2088 39.0577 14.1392C39.0577 16.0269 38.6207 17.8364 37.5248 19.3939C36.868 20.3274 36.0636 21.0885 35.1399 21.6938L35.1398 21.6937Z" fill="#006C39"/>
<path fill-rule="evenodd" clip-rule="evenodd" d="M12.4172 40.2751V12.327L10.9015 11.5015L9.38574 12.327V40.2751H12.4172Z" fill="url(#paint0_linear_1066_365)"/>
<path fill-rule="evenodd" clip-rule="evenodd" d="M7.72415 40.2751V16.627H4.69238V40.2751H7.72415Z" fill="url(#paint1_linear_1066_365)"/>
<path fill-rule="evenodd" clip-rule="evenodd" d="M3.0316 40.2749V24.1926H0V40.2749H3.0316Z" fill="url(#paint2_linear_1066_365)"/>
<path fill-rule="evenodd" clip-rule="evenodd" d="M10.9047 0.724854H10.8972L5.22363 12.6959L10.9011 9.6036L16.5783 12.6959L10.9047 0.724854Z" fill="url(#paint3_linear_1066_365)"/>
<path d="M64.8059 17.8465C65.6571 18.1236 66.317 18.5701 66.8065 19.1874C67.2961 19.826 67.5302 20.614 67.5302 21.5291C67.5302 22.8274 67.0193 23.8278 66.019 24.5301C64.9974 25.2325 63.5075 25.5944 61.5705 25.5944H53.8652V10.6949H61.1449C62.954 10.6949 64.3588 11.0355 65.3378 11.7379C66.2957 12.4402 66.7851 13.3767 66.7851 14.5687C66.7851 15.2927 66.6149 15.9308 66.2743 16.5055C65.9124 17.0801 65.423 17.5276 64.8057 17.8464L64.8059 17.8465ZM57.292 13.2917V16.8036H60.7193C61.5705 16.8036 62.2091 16.6551 62.6561 16.3567C63.1031 16.0587 63.3159 15.6117 63.3159 15.037C63.3159 14.4624 63.1031 14.0155 62.6561 13.7175C62.2091 13.4408 61.5705 13.2918 60.7193 13.2918H57.292V13.2917ZM61.3152 22.9978C62.2304 22.9978 62.9114 22.8488 63.3797 22.5503C63.8267 22.2528 64.0608 21.7846 64.0608 21.1668C64.0608 19.9324 63.145 19.3151 61.3151 19.3151H57.2919V22.9978H61.3151H61.3152ZM76.7684 25.8499C74.64 25.8499 72.9793 25.2539 71.8091 24.0833C70.6168 22.9122 70.0209 21.2312 70.0209 19.0389V10.6949H73.4689V18.9112C73.4689 21.5717 74.5756 22.9121 76.7896 22.9121C77.8752 22.9121 78.6835 22.5933 79.2587 21.933C79.8334 21.2945 80.11 20.2941 80.11 18.9111V10.6948H83.5155V19.0387C83.5155 21.231 82.9196 22.912 81.749 24.0832C80.5569 25.2538 78.8969 25.8498 76.7684 25.8498V25.8499ZM96.4147 25.5945L93.5413 21.4435H93.371H90.3695V25.5945H86.9215V10.6951H93.371C94.6907 10.6951 95.8401 10.908 96.819 11.3549C97.7768 11.8019 98.5218 12.4191 99.0539 13.228C99.586 14.0369 99.8414 14.9946 99.8414 16.1014C99.8414 17.2082 99.5861 18.1663 99.0539 18.9535C98.5218 19.7628 97.7556 20.38 96.7765 20.8052L100.118 25.5946H96.4147V25.5945ZM96.3507 16.1013C96.3507 15.2711 96.0741 14.6114 95.542 14.1644C95.0099 13.7175 94.2219 13.5046 93.1795 13.5046H90.3695V18.698H93.1795C94.2219 18.698 95.0099 18.4639 95.542 18.0174C96.074 17.57 96.3507 16.9314 96.3507 16.1014V16.1013ZM116.231 10.6951V25.5945H112.783V19.4859H106.014V25.5945H102.566V10.6951H106.014V16.5695H112.783V10.6951H116.231ZM129.576 22.4019H122.659L121.339 25.5945H117.806L124.446 10.6951H127.852L134.515 25.5945H130.896L129.576 22.4019ZM128.491 19.7839L126.128 14.0792L123.766 19.7839H128.491H128.491ZM149.733 10.6951V25.5945H146.902L139.474 16.5482V25.5945H136.068V10.6951H138.92L146.328 19.7414V10.6951H149.733ZM166.421 25.8499C164.91 25.8499 163.526 25.5092 162.313 24.8495C161.078 24.1897 160.12 23.2745 159.418 22.1039C158.715 20.9327 158.354 19.6135 158.354 18.1449C158.354 16.6759 158.715 15.335 159.418 14.1643C160.12 12.9937 161.078 12.0785 162.313 11.4186C163.526 10.7587 164.91 10.4395 166.442 10.4395C167.74 10.4395 168.911 10.6735 169.954 11.1206C170.997 11.5675 171.87 12.2273 172.572 13.0786L170.359 15.1219C169.358 13.9513 168.102 13.3766 166.613 13.3766C165.697 13.3766 164.867 13.5682 164.143 13.9725C163.42 14.377 162.866 14.9518 162.462 15.6753C162.058 16.3995 161.844 17.2292 161.844 18.1448C161.844 19.0596 162.058 19.8901 162.462 20.6139C162.866 21.3375 163.42 21.891 164.143 22.2948C164.867 22.6997 165.697 22.9121 166.613 22.9121C168.102 22.9121 169.358 22.3167 170.359 21.146L172.572 23.1893C171.87 24.0619 170.976 24.7218 169.933 25.1687C168.89 25.6157 167.719 25.8498 166.421 25.8498V25.8499Z" fill="#006C39"/>
<path d="M181.788 25.85C180.234 25.85 178.851 25.5094 177.616 24.8497C176.361 24.1898 175.402 23.2534 174.7 22.0827C173.998 20.9121 173.636 19.6137 173.636 18.1451C173.636 16.6761 173.998 15.3563 174.7 14.1857C175.402 13.0151 176.361 12.0999 177.616 11.4401C178.851 10.7802 180.234 10.4397 181.788 10.4397C183.342 10.4397 184.725 10.7803 185.96 11.4401C187.194 12.0999 188.173 13.0151 188.876 14.1857C189.579 15.3563 189.94 16.6761 189.94 18.1451C189.94 19.6137 189.579 20.9121 188.876 22.0827C188.173 23.2533 187.194 24.1898 185.96 24.8497C184.725 25.5095 183.342 25.85 181.788 25.85ZM181.788 22.9122C182.661 22.9122 183.47 22.6999 184.172 22.295C184.874 21.8911 185.449 21.3376 185.853 20.614C186.258 19.8903 186.449 19.0597 186.449 18.145C186.449 17.2293 186.258 16.3997 185.853 15.6755C185.449 14.9519 184.874 14.3772 184.172 13.9727C183.47 13.5684 182.661 13.3767 181.788 13.3767C180.916 13.3767 180.107 13.5684 179.404 13.9727C178.702 14.3771 178.148 14.9519 177.744 15.6755C177.34 16.3996 177.126 17.2293 177.126 18.145C177.126 19.0597 177.34 19.8902 177.744 20.614C178.148 21.3376 178.702 21.8911 179.404 22.295C180.107 22.6999 180.916 22.9122 181.788 22.9122ZM206.202 10.6951V25.5945H203.371L195.943 16.5482V25.5945H192.537V10.6951H195.389L202.796 19.7414V10.6951H206.202ZM214.631 25.8499C213.459 25.8499 212.31 25.7009 211.225 25.3603C210.118 25.0411 209.224 24.6366 208.564 24.1258L209.735 21.5291C210.373 21.9973 211.14 22.3805 212.013 22.6573C212.885 22.9339 213.779 23.0829 214.651 23.0829C215.631 23.0829 216.355 22.9339 216.823 22.636C217.291 22.3593 217.525 21.976 217.525 21.4867C217.525 21.1247 217.397 20.8263 217.121 20.5927C216.844 20.3586 216.482 20.1879 216.056 20.0394C215.61 19.8903 215.035 19.7414 214.29 19.5706C213.162 19.294 212.225 19.039 211.502 18.7622C210.778 18.4851 210.16 18.0595 209.65 17.4634C209.118 16.8675 208.862 16.08 208.862 15.0796C208.862 14.207 209.096 13.4195 209.564 12.7171C210.033 12.0148 210.735 11.4614 211.693 11.0569C212.63 10.6526 213.779 10.4397 215.141 10.4397C216.099 10.4397 217.014 10.5462 217.93 10.7803C218.845 11.0144 219.632 11.3336 220.314 11.7595L219.249 14.3774C217.866 13.5899 216.504 13.2068 215.12 13.2068C214.162 13.2068 213.438 13.3558 212.992 13.675C212.523 13.9944 212.289 14.3987 212.289 14.9096C212.289 15.4209 212.566 15.8035 213.098 16.0382C213.63 16.2936 214.439 16.5485 215.524 16.7831C216.652 17.0593 217.589 17.3147 218.313 17.5915C219.036 17.8682 219.654 18.2938 220.186 18.8691C220.697 19.4432 220.952 20.2312 220.952 21.2316C220.952 22.0829 220.718 22.8491 220.25 23.5516C219.76 24.2539 219.058 24.8287 218.1 25.2331C217.142 25.6374 215.993 25.8504 214.631 25.8504L214.631 25.8499ZM229.934 25.8499C227.806 25.8499 226.145 25.254 224.975 24.0834C223.783 22.9122 223.187 21.2313 223.187 19.0389V10.695H226.635V18.9113C226.635 21.5717 227.742 22.9121 229.956 22.9121C231.041 22.9121 231.849 22.5933 232.425 21.933C232.999 21.2945 233.276 20.2941 233.276 18.9111V10.6949H236.681V19.0388C236.681 21.2311 236.085 22.912 234.915 24.0833C233.723 25.2539 232.063 25.8498 229.934 25.8498V25.8499ZM240.087 10.6951H243.535V22.785H251.007V25.5945H240.087V10.6951Z" fill="#006C39"/>
<path d="M254.645 13.5046H249.878V10.6951H262.862V13.5046H258.094V25.5945H254.646V13.5046H254.645Z" fill="#006C39"/>
<path d="M64.8735 31.8667L62.371 39.2902H61.5437L59.3694 32.9593L57.1847 39.2902H56.3682L53.8652 31.8667H54.6717L56.8138 38.251L59.0302 31.8667H59.7619L61.9462 38.2828L64.1205 31.8667H64.8735Z" fill="#006C39"/>
<path d="M73.4992 38.6114V39.2902H68.25V31.8667H73.3402V32.5454H69.0348V35.1862H72.8739V35.8541H69.0348V38.6116H73.4992V38.6114Z" fill="#006C39"/>
<path d="M89.7215 31.8667V39.2902H88.9685V33.3514L86.052 38.3466H85.6812L82.7647 33.383V39.2902H82.0117V31.8667H82.6588L85.8827 37.3704L89.0749 31.8667H89.7215Z" fill="#006C39"/>
<path d="M97.3294 39.3541C96.5977 39.3541 95.9293 39.1843 95.3358 38.8551C94.7313 38.5268 94.2645 38.0813 93.9357 37.5086C93.5966 36.9362 93.4268 36.2891 93.4268 35.5788C93.4268 34.8679 93.5966 34.2214 93.9357 33.6485C94.2645 33.0758 94.7313 32.6198 95.3358 32.2911C95.9293 31.9624 96.5977 31.803 97.3294 31.803C98.0611 31.803 98.7294 31.9624 99.323 32.2911C99.9066 32.6198 100.373 33.0653 100.712 33.6377C101.052 34.2214 101.222 34.8679 101.222 35.5788C101.222 36.2891 101.052 36.9362 100.712 37.5086C100.373 38.0917 99.9066 38.5373 99.323 38.8659C98.7294 39.1947 98.0611 39.3541 97.3294 39.3541ZM97.3294 38.6541C97.9126 38.6541 98.4428 38.5165 98.92 38.2512C99.3973 37.9859 99.7685 37.6254 100.033 37.1481C100.299 36.6813 100.436 36.1616 100.436 35.5788C100.436 34.9956 100.299 34.4758 100.033 33.9985C99.7686 33.5317 99.3973 33.1605 98.92 32.8954C98.4427 32.6301 97.9126 32.5029 97.3294 32.5029C96.7462 32.5029 96.216 32.6301 95.7388 32.8954C95.2615 33.1603 94.8799 33.5317 94.6144 33.9985C94.3387 34.4758 94.2006 34.9955 94.2006 35.5788C94.2006 36.1615 94.3387 36.6813 94.6144 37.1481C94.8798 37.6254 95.2615 37.9857 95.7388 38.2512C96.2161 38.5165 96.7462 38.6541 97.3294 38.6541Z" fill="#006C39"/>
<path d="M110.876 31.8667L107.588 39.2902H106.814L103.526 31.8667H104.375L107.217 38.3144L110.08 31.8667H110.876Z" fill="#006C39"/>
<path d="M119.14 38.6114V39.2902H113.891V31.8667H118.981V32.5454H114.675V35.1862H118.515V35.8541H114.675V38.6116H119.14V38.6114Z" fill="#006C39"/>
<path d="M130.198 36.7238V39.2902H129.423V36.7238L126.454 31.8667H127.292L129.837 36.0345L132.382 31.8667H133.167L130.198 36.7238Z" fill="#006C39"/>
<path d="M139.258 39.3541C138.527 39.3541 137.858 39.1843 137.265 38.8551C136.66 38.5268 136.193 38.0813 135.865 37.5086C135.525 36.9362 135.355 36.2891 135.355 35.5788C135.355 34.8679 135.525 34.2214 135.865 33.6485C136.193 33.0758 136.66 32.6198 137.265 32.2911C137.858 31.9624 138.527 31.803 139.258 31.803C139.99 31.803 140.658 31.9624 141.252 32.2911C141.835 32.6198 142.302 33.0653 142.641 33.6377C142.981 34.2214 143.15 34.8679 143.15 35.5788C143.15 36.2891 142.981 36.9362 142.641 37.5086C142.302 38.0917 141.835 38.5373 141.252 38.8659C140.658 39.1947 139.99 39.3541 139.258 39.3541ZM139.258 38.6541C139.841 38.6541 140.372 38.5165 140.849 38.2512C141.326 37.9859 141.697 37.6254 141.962 37.1481C142.228 36.6813 142.365 36.1616 142.365 35.5788C142.365 34.9956 142.228 34.4758 141.962 33.9985C141.697 33.5317 141.326 33.1605 140.849 32.8954C140.372 32.6301 139.841 32.5029 139.258 32.5029C138.675 32.5029 138.145 32.6301 137.668 32.8954C137.19 33.1603 136.809 33.5317 136.543 33.9985C136.268 34.4758 136.129 34.9955 136.129 35.5788C136.129 36.1615 136.268 36.6813 136.543 37.1481C136.809 37.6254 137.19 37.9857 137.668 38.2512C138.145 38.5165 138.675 38.6541 139.258 38.6541Z" fill="#006C39"/>
<path d="M149.847 39.3541C148.882 39.3541 148.139 39.0784 147.598 38.5267C147.057 37.9753 146.792 37.1694 146.792 36.1193V31.8667H147.577V36.0876C147.577 36.9465 147.768 37.5936 148.16 38.0174C148.552 38.4416 149.114 38.654 149.847 38.654C150.589 38.654 151.15 38.4416 151.543 38.0174C151.936 37.5936 152.127 36.9465 152.127 36.0876V31.8667H152.89V36.1193C152.89 37.1694 152.625 37.9753 152.095 38.5267C151.554 39.0783 150.811 39.3541 149.847 39.3541Z" fill="#006C39"/>
<path d="M162.267 39.2902L160.571 36.904C160.38 36.9253 160.178 36.9361 159.977 36.9361H157.983V39.2902H157.198V31.8667H159.977C160.921 31.8667 161.663 32.0896 162.204 32.5454C162.745 33.0014 163.01 33.6168 163.01 34.412C163.01 34.9956 162.861 35.4832 162.575 35.8752C162.278 36.2787 161.854 36.5649 161.313 36.7451L163.127 39.2902H162.267ZM159.956 36.2678C160.687 36.2678 161.249 36.1089 161.642 35.7797C162.034 35.4515 162.225 34.9955 162.225 34.4119C162.225 33.8074 162.034 33.3514 161.642 33.0226C161.249 32.7043 160.687 32.5453 159.956 32.5453H157.983V36.2677H159.956V36.2678Z" fill="#006C39"/>
<path d="M176.211 35.4618C176.699 35.5678 177.081 35.7797 177.346 36.0876C177.61 36.4055 177.738 36.8084 177.738 37.3074C177.738 37.9437 177.505 38.4313 177.038 38.7703C176.561 39.1204 175.872 39.2902 174.949 39.2902H171.534V31.8667H174.737C175.564 31.8667 176.211 32.0365 176.667 32.3653C177.123 32.694 177.346 33.1712 177.346 33.7757C177.346 34.1891 177.25 34.5287 177.049 34.8149C176.847 35.1015 176.561 35.3238 176.211 35.4619L176.211 35.4618ZM172.319 32.5138V35.2074H174.684C175.288 35.2074 175.744 35.0906 176.073 34.8574C176.402 34.6345 176.561 34.295 176.561 33.8609C176.561 33.4257 176.402 33.086 176.073 32.8534C175.744 32.6301 175.288 32.5138 174.684 32.5138H172.319ZM174.939 38.6431C175.607 38.6431 176.105 38.5267 176.444 38.304C176.783 38.0811 176.953 37.7208 176.953 37.2435C176.953 36.3207 176.285 35.8538 174.939 35.8538H172.319V38.6431H174.939Z" fill="#006C39"/>
<path d="M184.466 39.3541C183.501 39.3541 182.758 39.0784 182.218 38.5267C181.676 37.9753 181.411 37.1694 181.411 36.1193V31.8667H182.196V36.0876C182.196 36.9465 182.387 37.5936 182.779 38.0174C183.172 38.4416 183.733 38.654 184.466 38.654C185.208 38.654 185.77 38.4416 186.162 38.0174C186.555 37.5936 186.746 36.9465 186.746 36.0876V31.8667H187.509V36.1193C187.509 37.1694 187.244 37.9753 186.714 38.5267C186.173 39.0783 185.43 39.3541 184.466 39.3541Z" fill="#006C39"/>
<path d="M193.864 39.354C193.312 39.354 192.782 39.269 192.284 39.0887C191.775 38.9085 191.382 38.6749 191.106 38.3888L191.414 37.7843C191.68 38.0496 192.04 38.2724 192.485 38.4314C192.931 38.6011 193.387 38.6858 193.864 38.6858C194.532 38.6858 195.031 38.5586 195.359 38.3144C195.688 38.0709 195.858 37.7634 195.858 37.3703C195.858 37.0738 195.773 36.8406 195.593 36.6604C195.413 36.4802 195.19 36.3421 194.924 36.2465C194.66 36.1511 194.299 36.0554 193.832 35.9392C193.27 35.801 192.825 35.6635 192.496 35.5253C192.167 35.3981 191.881 35.1965 191.648 34.9317C191.404 34.6664 191.287 34.2951 191.287 33.8391C191.287 33.4677 191.382 33.1183 191.584 32.8104C191.786 32.5029 192.083 32.259 192.496 32.0787C192.91 31.8984 193.418 31.803 194.023 31.803C194.447 31.803 194.861 31.8565 195.274 31.9728C195.677 32.0896 196.027 32.259 196.324 32.461L196.06 33.0862C195.752 32.8847 195.413 32.7258 195.063 32.6198C194.712 32.5243 194.363 32.4718 194.024 32.4718C193.376 32.4718 192.889 32.5985 192.56 32.8427C192.231 33.0971 192.062 33.4259 192.062 33.8184C192.062 34.115 192.157 34.3487 192.337 34.5288C192.518 34.7091 192.74 34.8467 193.016 34.9422C193.281 35.0378 193.652 35.1438 194.108 35.2605C194.649 35.3982 195.094 35.5254 195.434 35.6531C195.763 35.7908 196.049 35.9813 196.282 36.2466C196.516 36.512 196.632 36.8724 196.632 37.3284C196.632 37.6998 196.537 38.0388 196.335 38.3467C196.133 38.6541 195.816 38.8981 195.402 39.0784C194.988 39.2586 194.469 39.3541 193.864 39.3541L193.864 39.354Z" fill="#006C39"/>
<path d="M200.284 31.8667H201.069V39.2902H200.284V31.8667Z" fill="#006C39"/>
<path d="M211.636 31.8667V39.2902H210.989L206.216 33.2668V39.2902H205.432V31.8667H206.079L210.861 37.8902V31.8667H211.636Z" fill="#006C39"/>
<path d="M221.247 38.6114V39.2902H215.998V31.8667H221.088V32.5454H216.783V35.1862H220.622V35.8541H216.783V38.6116H221.247V38.6114Z" fill="#006C39"/>
<path d="M227.083 39.354C226.531 39.354 226.001 39.269 225.503 39.0887C224.994 38.9085 224.601 38.6749 224.325 38.3888L224.633 37.7843C224.898 38.0496 225.259 38.2724 225.704 38.4314C226.15 38.6011 226.606 38.6858 227.083 38.6858C227.751 38.6858 228.25 38.5586 228.578 38.3144C228.907 38.0709 229.076 37.7634 229.076 37.3703C229.076 37.0738 228.992 36.8406 228.812 36.6604C228.631 36.4802 228.409 36.3421 228.143 36.2465C227.878 36.1511 227.518 36.0554 227.051 35.9392C226.489 35.801 226.044 35.6635 225.715 35.5253C225.386 35.3981 225.1 35.1965 224.866 34.9317C224.623 34.6664 224.506 34.2951 224.506 33.8391C224.506 33.4677 224.601 33.1183 224.803 32.8104C225.004 32.5029 225.302 32.259 225.715 32.0787C226.129 31.8984 226.637 31.803 227.242 31.803C227.666 31.803 228.08 31.8565 228.493 31.9728C228.896 32.0896 229.246 32.259 229.543 32.461L229.278 33.0862C228.971 32.8847 228.631 32.7258 228.281 32.6198C227.931 32.5243 227.581 32.4718 227.242 32.4718C226.595 32.4718 226.108 32.5985 225.779 32.8427C225.45 33.0971 225.28 33.4259 225.28 33.8184C225.28 34.115 225.376 34.3487 225.556 34.5288C225.736 34.7091 225.959 34.8467 226.235 34.9422C226.5 35.0378 226.871 35.1438 227.327 35.2605C227.868 35.3982 228.313 35.5254 228.653 35.6531C228.981 35.7908 229.268 35.9813 229.501 36.2466C229.734 36.512 229.851 36.8724 229.851 37.3284C229.851 37.6998 229.756 38.0388 229.554 38.3467C229.352 38.6541 229.034 38.8981 228.621 39.0784C228.207 39.2586 227.687 39.3541 227.083 39.3541L227.083 39.354Z" fill="#006C39"/>
<path d="M235.551 39.354C234.999 39.354 234.469 39.269 233.971 39.0887C233.461 38.9085 233.069 38.6749 232.793 38.3888L233.101 37.7843C233.366 38.0496 233.727 38.2724 234.172 38.4314C234.617 38.6011 235.073 38.6858 235.551 38.6858C236.219 38.6858 236.717 38.5586 237.046 38.3144C237.375 38.0709 237.544 37.7634 237.544 37.3703C237.544 37.0738 237.459 36.8406 237.279 36.6604C237.099 36.4802 236.876 36.3421 236.611 36.2465C236.346 36.1511 235.986 36.0554 235.519 35.9392C234.957 35.801 234.511 35.6635 234.183 35.5253C233.854 35.3981 233.568 35.1965 233.334 34.9317C233.091 34.6664 232.974 34.2951 232.974 33.8391C232.974 33.4677 233.069 33.1183 233.271 32.8104C233.472 32.5029 233.769 32.259 234.183 32.0787C234.596 31.8984 235.105 31.803 235.71 31.803C236.134 31.803 236.548 31.8565 236.961 31.9728C237.364 32.0896 237.714 32.259 238.011 32.461L237.746 33.0862C237.438 32.8847 237.099 32.7258 236.749 32.6198C236.399 32.5243 236.049 32.4718 235.71 32.4718C235.063 32.4718 234.575 32.5985 234.247 32.8427C233.917 33.0971 233.748 33.4259 233.748 33.8184C233.748 34.115 233.844 34.3487 234.024 34.5288C234.204 34.7091 234.427 34.8467 234.703 34.9422C234.967 35.0378 235.339 35.1438 235.795 35.2605C236.335 35.3982 236.781 35.5254 237.12 35.6531C237.449 35.7908 237.735 35.9813 237.969 36.2466C238.202 36.512 238.319 36.8724 238.319 37.3284C238.319 37.6998 238.224 38.0388 238.022 38.3467C237.82 38.6541 237.502 38.8981 237.089 39.0784C236.675 39.2586 236.155 39.3541 235.551 39.3541L235.551 39.354Z" fill="#006C39"/>
<path d="M249.683 39.3541C248.719 39.3541 247.976 39.0784 247.435 38.5267C246.894 37.9753 246.629 37.1694 246.629 36.1193V31.8667H247.414V36.0876C247.414 36.9465 247.605 37.5936 247.997 38.0174C248.389 38.4416 248.951 38.654 249.683 38.654C250.426 38.654 250.987 38.4416 251.38 38.0174C251.773 37.5936 251.964 36.9465 251.964 36.0876V31.8667H252.727V36.1193C252.727 37.1694 252.462 37.9753 251.931 38.5267C251.391 39.0783 250.648 39.3541 249.683 39.3541Z" fill="#006C39"/>
<path d="M259.814 31.8667C260.758 31.8667 261.5 32.0896 262.041 32.5454C262.582 33.0014 262.847 33.6168 262.847 34.412C262.847 35.2075 262.582 35.8228 262.041 36.2679C261.5 36.7239 260.757 36.9467 259.814 36.9467H257.82V39.2903H257.035V31.8668H259.814V31.8667ZM259.793 36.257C260.524 36.257 261.086 36.0985 261.479 35.7692C261.871 35.4515 262.062 34.9955 262.062 34.4119C262.062 33.8074 261.871 33.3514 261.479 33.0226C261.086 32.7043 260.524 32.5453 259.793 32.5453H257.82V36.2569H259.793V36.257Z" fill="#006C39"/>
<path fill-rule="evenodd" clip-rule="evenodd" d="M266.613 10.2406H266.632H266.652C267.054 10.2373 267.441 10.1327 267.811 9.92696C268.188 9.71978 268.48 9.42655 268.688 9.0486C268.894 8.67821 268.997 8.2914 269 7.88945V7.87044V7.85109C268.997 7.44666 268.891 7.05595 268.684 6.68146C268.472 6.3021 268.176 6.00877 267.799 5.80548C267.418 5.60067 267.03 5.49854 266.632 5.49854C266.234 5.49854 265.846 5.60067 265.466 5.80548C265.088 6.00888 264.79 6.3021 264.578 6.68146C264.366 7.06212 264.26 7.45898 264.26 7.87044C264.26 8.27908 264.364 8.6727 264.573 9.0486C264.783 9.42655 265.076 9.71988 265.451 9.92696C265.823 10.1327 266.209 10.2373 266.613 10.2406ZM266.632 5.89151C266.299 5.89151 265.974 5.97711 265.659 6.14733C265.344 6.3181 265.097 6.56258 264.919 6.88C264.741 7.19743 264.652 7.5275 264.652 7.87033C264.652 8.2124 264.739 8.53966 264.914 8.85266C265.089 9.16533 265.333 9.41034 265.648 9.58489C265.962 9.75944 266.291 9.84731 266.632 9.84731C266.974 9.84731 267.301 9.75944 267.615 9.58489C267.93 9.41034 268.174 9.16533 268.348 8.85266C268.522 8.53955 268.609 8.21229 268.609 7.87033C268.609 7.5274 268.52 7.19732 268.342 6.88C268.166 6.56258 267.919 6.3181 267.602 6.14733C267.287 5.97711 266.963 5.89151 266.632 5.89151H266.632ZM267.393 8.25217L267.779 8.36803C267.715 8.62947 267.582 8.84002 267.379 8.99565C267.174 9.15226 266.926 9.23072 266.636 9.23072C266.266 9.23072 265.968 9.1115 265.737 8.87211C265.506 8.63282 265.392 8.30264 265.392 7.87941C265.392 7.60272 265.444 7.36235 265.549 7.15852C265.654 6.95371 265.803 6.80002 265.997 6.69648C266.191 6.5924 266.413 6.54129 266.661 6.54129C266.94 6.54129 267.172 6.6071 267.356 6.74144C267.541 6.87524 267.665 7.05736 267.733 7.28767L267.36 7.38321C267.298 7.22618 267.205 7.10458 267.081 7.02126C266.958 6.93663 266.815 6.89459 266.648 6.89459C266.407 6.89459 266.207 6.98008 266.051 7.15182C265.894 7.32355 265.817 7.57041 265.817 7.89011C265.817 8.21035 265.891 8.45244 266.038 8.61661C266.186 8.78078 266.377 8.86346 266.612 8.86346C266.801 8.86346 266.967 8.80856 267.109 8.69843C267.253 8.58873 267.346 8.44023 267.393 8.25195V8.25217Z" fill="#006C39"/>
<defs>
<linearGradient id="paint0_linear_1066_365" x1="10.9015" y1="11.5015" x2="10.9015" y2="40.2751" gradientUnits="userSpaceOnUse">
<stop stop-color="#FFF792"/>
<stop offset="0.309804" stop-color="#FCD863"/>
<stop offset="0.670588" stop-color="#E2B13C"/>
<stop offset="1" stop-color="#E8C44D"/>
</linearGradient>
<linearGradient id="paint1_linear_1066_365" x1="6.20824" y1="16.627" x2="6.20824" y2="40.2751" gradientUnits="userSpaceOnUse">
<stop stop-color="#FFF792"/>
<stop offset="0.309804" stop-color="#FCD863"/>
<stop offset="0.670588" stop-color="#E2B13C"/>
<stop offset="1" stop-color="#E8C44D"/>
</linearGradient>
<linearGradient id="paint2_linear_1066_365" x1="1.51577" y1="24.1926" x2="1.51577" y2="40.2749" gradientUnits="userSpaceOnUse">
<stop stop-color="#FFF792"/>
<stop offset="0.309804" stop-color="#FCD863"/>
<stop offset="0.670588" stop-color="#E2B13C"/>
<stop offset="1" stop-color="#E8C44D"/>
</linearGradient>
<linearGradient id="paint3_linear_1066_365" x1="10.9009" y1="0.724854" x2="10.9009" y2="12.6959" gradientUnits="userSpaceOnUse">
<stop stop-color="#FFF792"/>
<stop offset="0.309804" stop-color="#FCD863"/>
<stop offset="0.670588" stop-color="#E2B13C"/>
<stop offset="1" stop-color="#E8C44D"/>
</linearGradient>
</defs>
</svg>
