<svg width="21" height="24" viewBox="0 0 21 24" fill="none" xmlns="http://www.w3.org/2000/svg">
<path d="M20.4011 16.9592L15.8073 14.7092C15.611 14.6136 15.3929 14.5935 15.1858 14.6518C14.9787 14.7102 14.7937 14.8438 14.6588 15.0327L12.6244 17.8733C9.4316 16.1529 6.86212 13.2163 5.35673 9.5674L7.84232 7.24236C8.0079 7.08846 8.12509 6.87709 8.17615 6.64026C8.22722 6.40344 8.20938 6.15404 8.12534 5.92984L6.15655 0.679743C6.06431 0.438056 5.90117 0.240726 5.69526 0.12178C5.48935 0.00283372 5.25358 -0.0302726 5.0286 0.0281692L0.762904 1.15319C0.545997 1.21043 0.352472 1.35001 0.213915 1.54914C0.0753573 1.74827 -4.99665e-05 1.9952 2.48403e-08 2.24961C2.48403e-08 14.2733 8.5273 24 19.0316 24C19.2543 24.0002 19.4704 23.914 19.6447 23.7557C19.8191 23.5973 19.9413 23.3761 19.9914 23.1281L20.9758 18.253C21.0266 17.9947 20.997 17.7241 20.8921 17.488C20.7872 17.2519 20.6136 17.0649 20.4011 16.9592Z" fill="white"/>
</svg>
