<svg width="81" height="58" viewBox="0 0 81 58" fill="none" xmlns="http://www.w3.org/2000/svg">
<path d="M0.93457 22.1983V56.1621C0.93457 56.7144 1.38229 57.1621 1.93457 57.1621H34.2784C34.8307 57.1621 35.2784 56.7144 35.2784 56.1621V24.9823C35.2784 24.43 34.8307 23.9823 34.2784 23.9823H19.0116C18.3014 23.9823 17.8176 23.2627 18.0855 22.605L26.5679 1.78452C26.8359 1.12682 26.352 0.407227 25.6418 0.407227H13.1728C12.8054 0.407227 12.4677 0.608593 12.293 0.931717L1.05486 21.7228C0.97591 21.8688 0.93457 22.0322 0.93457 22.1983Z" fill="url(#paint0_linear_850_18250)"/>
<path d="M46.6289 22.1983V56.1621C46.6289 56.7144 47.0766 57.1621 47.6289 57.1621H79.9728C80.5251 57.1621 80.9728 56.7144 80.9728 56.1621V24.9823C80.9728 24.43 80.5251 23.9823 79.9728 23.9823H64.7059C63.9958 23.9823 63.5119 23.2627 63.7799 22.605L72.2623 1.78452C72.5302 1.12682 72.0464 0.407227 71.3362 0.407227H58.8671C58.4998 0.407227 58.162 0.608593 57.9874 0.931717L46.7492 21.7228C46.6702 21.8688 46.6289 22.0322 46.6289 22.1983Z" fill="url(#paint1_linear_850_18250)"/>
<defs>
<linearGradient id="paint0_linear_850_18250" x1="18.1062" y1="0.407227" x2="18.1062" y2="57.1621" gradientUnits="userSpaceOnUse">
<stop stop-color="#FFF792"/>
<stop offset="0.309804" stop-color="#FCD863"/>
<stop offset="0.670588" stop-color="#E2B13C"/>
<stop offset="1" stop-color="#E8C44D"/>
</linearGradient>
<linearGradient id="paint1_linear_850_18250" x1="63.8005" y1="0.407227" x2="63.8005" y2="57.1621" gradientUnits="userSpaceOnUse">
<stop stop-color="#FFF792"/>
<stop offset="0.309804" stop-color="#FCD863"/>
<stop offset="0.670588" stop-color="#E2B13C"/>
<stop offset="1" stop-color="#E8C44D"/>
</linearGradient>
</defs>
</svg>
